solid 
facet normal 0.37980792 -0.9169054 -0.122598715
 outer loop
  vertex 28.145456 -67.95145 51.27169
  vertex 0 -79.610085 51.271698
  vertex 0 -77.003944 31.780596
 endloop
endfacet
facet normal 0.37980837 -0.91690516 -0.1225995
 outer loop
  vertex 28.145456 -67.95145 51.27169
  vertex 0 -77.003944 31.780596
  vertex 27.224041 -65.72697 31.780594
 endloop
endfacet
facet normal 0 -0.79844683 0.6020653
 outer loop
  vertex 0 -64.778114 145.30783
  vertex 15.488932 -64.778114 145.30783
  vertex 16.913397 -47.74494 167.89688
 endloop
endfacet
endsolid 
