solid 
facet normal 0.37980792 -0.9169054 -0.122598715
 outer loop
  vertex 28.145456 -67.95145 51.27169
  vertex 0 -79.610085 51.271698
  vertex 0 -77.003944 31.780596
 endloop
endfacet
facet normal 0.37980837 -0.91690516 -0.1225995
 outer loop
  vertex 28.145456 -67.95145 51.27169
  vertex 0 -77.003944 31.780596
  vertex 27.224041 -65.72697 31.780594
 endloop
endfacet
facet normal 0 -0.79844683 0.6020653
 outer loop
  vertex 0 -64.778114 145.30783
  vertex 15.488932 -64.778114 145.30783
  vertex 16.913397 -47.74494 167.89688
 endloop
endfacet
facet normal 0 -0.7984469 0.60206527
 outer loop
  vertex 0 -64.778114 145.30783
  vertex 16.913397 -47.74494 167.89688
  vertex 0 -47.74494 167.89688
 endloop
endfacet
facet normal 0.1761161 0.42516595 0.88781583
 outer loop
  vertex 0 79.46663 23.247036
  vertex 0 72.89425 26.394482
  vertex 51.542084 51.544014 26.394485
 endloop
endfacet
facet normal 0.17930937 0.43068773 0.8845091
 outer loop
  vertex 0 79.46663 23.247036
  vertex 51.542084 51.544014 26.394485
  vertex 55.843777 56.217026 23.247042
 endloop
endfacet
facet normal 0.4428618 0.18343964 0.8776236
 outer loop
  vertex 79.09338 0.087525755 23.247055
  vertex 55.843777 56.217026 23.247042
  vertex 51.542084 51.544014 26.394485
 endloop
endfacet
facet normal 0.4428625 0.18344001 0.8776233
 outer loop
  vertex 79.09338 0.087525755 23.247055
  vertex 51.542084 51.544014 26.394485
  vertex 72.89233 5.9927293e-06 26.394499
 endloop
endfacet
facet normal 0.44685787 -0.18509448 0.8752474
 outer loop
  vertex 55.843777 -56.041977 23.247066
  vertex 79.09338 0.087525755 23.247055
  vertex 72.89233 5.9927293e-06 26.394499
 endloop
endfacet
facet normal 0.44685718 -0.18509427 0.87524784
 outer loop
  vertex 55.843777 -56.041977 23.247066
  vertex 72.89233 5.9927293e-06 26.394499
  vertex 51.542084 -51.543995 26.39451
 endloop
endfacet
facet normal 0.92348146 -0.38251865 -0.029349053
 outer loop
  vertex 78.340324 -0.5618364 8.015108
  vertex 79.09338 0.087525755 23.247055
  vertex 55.843777 -56.041977 23.247066
 endloop
endfacet
facet normal 0.9234816 -0.38251856 -0.029348573
 outer loop
  vertex 78.340324 -0.5618364 8.015108
  vertex 55.843777 -56.041977 23.247066
  vertex 55.47498 -55.763668 8.015121
 endloop
endfacet
facet normal 0.9221095 0.38195035 -0.0618712
 outer loop
  vertex 55.47498 54.639996 8.015096
  vertex 55.843777 56.217026 23.247042
  vertex 79.09338 0.087525755 23.247055
 endloop
endfacet
facet normal 0.92210954 0.3819502 -0.061871752
 outer loop
  vertex 55.47498 54.639996 8.015096
  vertex 79.09338 0.087525755 23.247055
  vertex 78.340324 -0.5618364 8.015108
 endloop
endfacet
facet normal 0.38166577 0.91673213 -0.11803936
 outer loop
  vertex 0 77.50535 8.01509
  vertex 0 79.46663 23.247036
  vertex 55.843777 56.217026 23.247042
 endloop
endfacet
facet normal 0.37899202 0.91949487 -0.10437553
 outer loop
  vertex 0 77.50535 8.01509
  vertex 55.843777 56.217026 23.247042
  vertex 55.47498 54.639996 8.015096
 endloop
endfacet
facet normal 0.38601455 -0.9224658 -0.007045024
 outer loop
  vertex 28.62621 -67.19634 8.015123
  vertex 27.779993 -67.66678 23.24707
  vertex 0 -79.29158 23.247072
 endloop
endfacet
facet normal 0.37059042 -0.9279189 -0.04036264
 outer loop
  vertex 28.62621 -67.19634 8.015123
  vertex 0 -79.29158 23.247072
  vertex 0 -78.62902 8.015127
 endloop
endfacet
facet normal 0.9169099 -0.3797968 -0.12259996
 outer loop
  vertex 77.00203 7.399367e-06 31.780577
  vertex 79.608185 1.1870904e-05 51.271675
  vertex 56.290913 -56.29282 51.27169
 endloop
endfacet
facet normal 0.9169098 -0.37979686 -0.1226001
 outer loop
  vertex 77.00203 7.399367e-06 31.780577
  vertex 56.290913 -56.29282 51.27169
  vertex 54.448082 -54.44999 31.78059
 endloop
endfacet
facet normal 0.37980786 0.9169051 -0.122600876
 outer loop
  vertex 0 79.61012 51.271656
  vertex 56.290913 56.292843 51.271664
  vertex 54.448082 54.45001 31.780563
 endloop
endfacet
facet normal 0.3798082 0.91690505 -0.12260013
 outer loop
  vertex 0 79.61012 51.271656
  vertex 54.448082 54.45001 31.780563
  vertex 0 77.00395 31.780558
 endloop
endfacet
facet normal 0.18248755 -0.44054672 0.8789863
 outer loop
  vertex 27.779993 -67.66678 23.24707
  vertex 25.771042 -62.219116 26.394512
  vertex 0 -72.89424 26.394516
 endloop
endfacet
facet normal 0.18165812 -0.43411142 0.8823535
 outer loop
  vertex 27.779993 -67.66678 23.24707
  vertex 0 -72.89424 26.394516
  vertex 0 -79.29158 23.247072
 endloop
endfacet
facet normal 0.9169099 0.37979677 -0.12260014
 outer loop
  vertex 56.290913 56.292843 51.271664
  vertex 79.608185 1.1870904e-05 51.271675
  vertex 77.00203 7.399367e-06 31.780577
 endloop
endfacet
facet normal 0.9169098 0.37979677 -0.12260012
 outer loop
  vertex 56.290913 56.292843 51.271664
  vertex 77.00203 7.399367e-06 31.780577
  vertex 54.448082 54.45001 31.780563
 endloop
endfacet
facet normal 0.5902578 -0.24449278 0.7692977
 outer loop
  vertex 56.290913 -56.29282 51.27169
  vertex 79.608185 1.1870904e-05 51.271675
  vertex 61.179966 1.3938398e-05 65.411064
 endloop
endfacet
facet normal 0.6188333 -0.24149436 0.7474797
 outer loop
  vertex 56.290913 -56.29282 51.27169
  vertex 61.179966 1.3938398e-05 65.411064
  vertex 45.641827 -39.8167 65.41107
 endloop
endfacet
facet normal 0.22618769 -0.5460468 0.80664235
 outer loop
  vertex 28.145456 -67.95145 51.27169
  vertex 56.290913 -56.29282 51.27169
  vertex 45.641827 -39.8167 65.41107
 endloop
endfacet
facet normal 0.19286245 -0.53372896 0.82336956
 outer loop
  vertex 28.145456 -67.95145 51.27169
  vertex 45.641827 -39.8167 65.41107
  vertex 22.820913 -48.063015 65.41107
 endloop
endfacet
facet normal 0.21009572 0.5071984 0.8358287
 outer loop
  vertex 56.290913 56.292843 51.271664
  vertex 0 79.61012 51.271656
  vertex 0 56.309357 65.41105
 endloop
endfacet
facet normal 0.20210336 0.55930316 0.8039491
 outer loop
  vertex 56.290913 56.292843 51.271664
  vertex 0 56.309357 65.41105
  vertex 45.641827 39.81673 65.411064
 endloop
endfacet
facet normal 0.6188338 0.24149469 0.7474792
 outer loop
  vertex 56.290913 56.292843 51.271664
  vertex 45.641827 39.81673 65.411064
  vertex 61.179966 1.3938398e-05 65.411064
 endloop
endfacet
facet normal 0.5902577 0.24449313 0.76929766
 outer loop
  vertex 56.290913 56.292843 51.271664
  vertex 61.179966 1.3938398e-05 65.411064
  vertex 79.608185 1.1870904e-05 51.271675
 endloop
endfacet
facet normal 0.46144095 0.88100994 -0.10437384
 outer loop
  vertex 0 77.761 166.37772
  vertex 0 82.954994 210.21973
  vertex 21.645294 71.612885 210.17674
 endloop
endfacet
facet normal 0.46426997 0.8793269 -0.106008165
 outer loop
  vertex 0 77.761 166.37772
  vertex 21.645294 71.612885 210.17674
  vertex 24.472864 64.864174 166.58041
 endloop
endfacet
facet normal 0.9361951 -0.23347661 0.2627307
 outer loop
  vertex 28.375711 -29.493134 167.2428
  vertex 39.124508 12.150058 165.94771
  vertex 30.875647 28.312908 209.70427
 endloop
endfacet
facet normal 0.9431221 -0.22233701 0.24715766
 outer loop
  vertex 28.375711 -29.493134 167.2428
  vertex 30.875647 28.312908 209.70427
  vertex 22.188396 -4.6753726 213.17825
 endloop
endfacet
facet normal 0.9776182 0.20806065 0.03119857
 outer loop
  vertex 24.472864 64.864174 166.58041
  vertex 21.645294 71.612885 210.17674
  vertex 30.875647 28.312908 209.70427
 endloop
endfacet
facet normal 0.96042246 0.26595095 0.08281881
 outer loop
  vertex 24.472864 64.864174 166.58041
  vertex 30.875647 28.312908 209.70427
  vertex 39.124508 12.150058 165.94771
 endloop
endfacet
facet normal 0.22767942 0.7843108 0.5770776
 outer loop
  vertex 0 76.42724 259.50272
  vertex 0 44.762028 302.53915
  vertex 31.265429 35.685913 302.53915
 endloop
endfacet
facet normal 0.40350723 0.79257804 0.45716733
 outer loop
  vertex 0 76.42724 259.50272
  vertex 31.265429 35.685913 302.53915
  vertex 24.177061 64.96624 258.03305
 endloop
endfacet
facet normal 0.9935492 -0.06263706 -0.09453227
 outer loop
  vertex 26.77076 -2.7597704 232.50233
  vertex 30.300089 32.458805 246.26033
  vertex 31.279083 7.8264265 272.87112
 endloop
endfacet
facet normal 0.98922366 0.06970546 -0.12875433
 outer loop
  vertex 26.77076 -2.7597704 232.50233
  vertex 31.279083 7.8264265 272.87112
  vertex 29.650888 -9.216704 251.13478
 endloop
endfacet
facet normal 0.99075985 0.0990971 -0.09260021
 outer loop
  vertex 24.177061 64.96624 258.03305
  vertex 31.265429 35.685913 302.53915
  vertex 31.279083 7.8264265 272.87112
 endloop
endfacet
facet normal 0.983693 0.14858295 0.10134691
 outer loop
  vertex 24.177061 64.96624 258.03305
  vertex 31.279083 7.8264265 272.87112
  vertex 30.300089 32.458805 246.26033
 endloop
endfacet
facet normal 0.04803574 -0.26310742 -0.96357
 outer loop
  vertex 22.188396 -4.6753726 213.17825
  vertex 20.353062 -20.286966 217.34958
  vertex 0 -21.07335 216.54967
 endloop
endfacet
facet normal 0.22560142 -0.47961044 -0.84798455
 outer loop
  vertex 22.188396 -4.6753726 213.17825
  vertex 0 -21.07335 216.54967
  vertex 0 -10.35478 210.48737
 endloop
endfacet
facet normal 0.9863631 -0.028025003 -0.16217992
 outer loop
  vertex 26.77076 -2.7597704 232.50233
  vertex 29.650888 -9.216704 251.13478
  vertex 26.151258 -21.880642 232.03871
 endloop
endfacet
facet normal 0.06150007 -0.26741427 0.961617
 outer loop
  vertex 23.815239 -23.698515 311.4835
  vertex 26.075788 -3.7919571 316.8747
  vertex 0 -4.681878 318.2949
 endloop
endfacet
facet normal 0.1292079 -0.18699454 0.97382665
 outer loop
  vertex 23.815239 -23.698515 311.4835
  vertex 0 -4.681878 318.2949
  vertex 0 -25.974691 314.20624
 endloop
endfacet
facet normal 0.978026 -0.20692277 0.025457669
 outer loop
  vertex 23.877007 -54.756165 242.78558
  vertex 25.318771 -45.587673 261.91876
  vertex 16.094004 -89.4988 259.3989
 endloop
endfacet
facet normal 0.9734172 -0.22807926 -0.02094505
 outer loop
  vertex 23.877007 -54.756165 242.78558
  vertex 16.094004 -89.4988 259.3989
  vertex 16.918718 -83.677414 234.33586
 endloop
endfacet
facet normal 0.98260176 -0.14194645 0.11977036
 outer loop
  vertex 28.872526 6.165647 305.38693
  vertex 23.815239 -23.698515 311.4835
  vertex 23.144361 -50.172874 285.61118
 endloop
endfacet
facet normal 0.9867686 -0.13291897 0.09284524
 outer loop
  vertex 28.872526 6.165647 305.38693
  vertex 23.144361 -50.172874 285.61118
  vertex 26.905403 -27.120113 278.6412
 endloop
endfacet
facet normal 0.9878396 -0.14206707 0.06316629
 outer loop
  vertex 25.318771 -45.587673 261.91876
  vertex 26.905403 -27.120113 278.6412
  vertex 23.144361 -50.172874 285.61118
 endloop
endfacet
facet normal 0.9768698 -0.20805322 0.049389213
 outer loop
  vertex 25.318771 -45.587673 261.91876
  vertex 23.144361 -50.172874 285.61118
  vertex 16.094004 -89.4988 259.3989
 endloop
endfacet
facet normal 0.023583954 0.49660173 -0.86765814
 outer loop
  vertex 16.484077 -50.33323 221.9061
  vertex 16.443447 -64.34087 213.88776
  vertex 0 -64.993126 213.06749
 endloop
endfacet
facet normal 0.023521483 0.49665463 -0.86762947
 outer loop
  vertex 16.484077 -50.33323 221.9061
  vertex 0 -64.993126 213.06749
  vertex 0 -50.98548 221.08585
 endloop
endfacet
facet normal 0.14534646 -0.75285995 0.6419317
 outer loop
  vertex 23.815239 -23.698515 311.4835
  vertex 0 -25.974691 314.20624
  vertex 0 -50.113632 285.896
 endloop
endfacet
facet normal 0.007010807 -0.6990017 0.71508557
 outer loop
  vertex 23.815239 -23.698515 311.4835
  vertex 0 -50.113632 285.896
  vertex 23.144361 -50.172874 285.61118
 endloop
endfacet
facet normal 0.008808242 -0.5556982 0.83133733
 outer loop
  vertex 16.094004 -89.4988 259.3989
  vertex 23.144361 -50.172874 285.61118
  vertex 0 -50.113632 285.896
 endloop
endfacet
facet normal 0.09620837 -0.52824837 0.84362173
 outer loop
  vertex 16.094004 -89.4988 259.3989
  vertex 0 -50.113632 285.896
  vertex 0 -91.77498 259.80902
 endloop
endfacet
facet normal 0.13109572 -0.96660537 -0.22019954
 outer loop
  vertex 16.918718 -83.677414 234.33586
  vertex 16.094004 -89.4988 259.3989
  vertex 0 -91.77498 259.80902
 endloop
endfacet
facet normal 0.08649967 -0.96458715 -0.24917771
 outer loop
  vertex 16.918718 -83.677414 234.33586
  vertex 0 -91.77498 259.80902
  vertex 0 -85.14163 234.1308
 endloop
endfacet
facet normal 0.9126091 0.37801516 -0.15572165
 outer loop
  vertex 42.153294 43.369503 93.24549
  vertex 42.38913 44.85838 98.24187
  vertex 60.970074 2.1417056e-05 98.241875
 endloop
endfacet
facet normal 0.91260916 0.3780153 -0.15572067
 outer loop
  vertex 42.153294 43.369503 93.24549
  vertex 60.970074 2.1417056e-05 98.241875
  vertex 60.11753 2.0039839e-05 93.2455
 endloop
endfacet
facet normal 0.3762673 -0.8829157 -0.28086084
 outer loop
  vertex 21.076647 -52.351578 93.245514
  vertex 42.153294 -43.369457 93.24551
  vertex 42.38913 -44.85833 98.24188
 endloop
endfacet
facet normal 0.38022214 -0.86740947 -0.32098582
 outer loop
  vertex 21.076647 -52.351578 93.245514
  vertex 42.38913 -44.85833 98.24188
  vertex 21.194565 -54.148804 98.24189
 endloop
endfacet
facet normal 0.36553892 0.85774124 -0.36147097
 outer loop
  vertex 42.153294 43.369503 93.24549
  vertex 0 61.33374 93.24548
  vertex 0 63.43932 98.24185
 endloop
endfacet
facet normal 0.38538623 0.87919027 -0.28018194
 outer loop
  vertex 42.153294 43.369503 93.24549
  vertex 0 63.43932 98.24185
  vertex 42.38913 44.85838 98.24187
 endloop
endfacet
facet normal 0.91260916 -0.37801537 -0.15572046
 outer loop
  vertex 42.153294 -43.369457 93.24551
  vertex 60.11753 2.0039839e-05 93.2455
  vertex 60.970074 2.1417056e-05 98.241875
 endloop
endfacet
facet normal 0.9126091 -0.3780152 -0.15572147
 outer loop
  vertex 42.153294 -43.369457 93.24551
  vertex 60.970074 2.1417056e-05 98.241875
  vertex 42.38913 -44.85833 98.24188
 endloop
endfacet
facet normal 0.9807288 0.19377148 -0.024971563
 outer loop
  vertex 21.645294 71.612885 210.17674
  vertex 24.177061 64.96624 258.03305
  vertex 30.300089 32.458805 246.26033
 endloop
endfacet
facet normal 0.9779732 0.20856681 -0.008256264
 outer loop
  vertex 21.645294 71.612885 210.17674
  vertex 30.300089 32.458805 246.26033
  vertex 30.875647 28.312908 209.70427
 endloop
endfacet
facet normal 0.967232 -0.25012323 0.04359559
 outer loop
  vertex 22.188396 -4.6753726 213.17825
  vertex 30.875647 28.312908 209.70427
  vertex 30.300089 32.458805 246.26033
 endloop
endfacet
facet normal 0.9731588 -0.007671057 -0.23000689
 outer loop
  vertex 22.188396 -4.6753726 213.17825
  vertex 30.300089 32.458805 246.26033
  vertex 26.77076 -2.7597704 232.50233
 endloop
endfacet
facet normal 0.4312065 0.89444125 0.11847281
 outer loop
  vertex 0 82.954994 210.21973
  vertex 0 76.42724 259.50272
  vertex 24.177061 64.96624 258.03305
 endloop
endfacet
facet normal 0.46205828 0.88142115 0.09797391
 outer loop
  vertex 0 82.954994 210.21973
  vertex 24.177061 64.96624 258.03305
  vertex 21.645294 71.612885 210.17674
 endloop
endfacet
facet normal 0.9073607 0.24812411 0.3393097
 outer loop
  vertex 34.477074 58.270348 144.6496
  vertex 24.472864 64.864174 166.58041
  vertex 39.124508 12.150058 165.94771
 endloop
endfacet
facet normal 0.93097657 0.22615896 0.2865918
 outer loop
  vertex 34.477074 58.270348 144.6496
  vertex 39.124508 12.150058 165.94771
  vertex 46.59193 8.809711 144.3262
 endloop
endfacet
facet normal 0.92330456 -0.16884004 0.34496626
 outer loop
  vertex 37.33843 -41.421886 144.50795
  vertex 46.59193 8.809711 144.3262
  vertex 39.124508 12.150058 165.94771
 endloop
endfacet
facet normal 0.86706996 -0.20975181 0.45187807
 outer loop
  vertex 37.33843 -41.421886 144.50795
  vertex 39.124508 12.150058 165.94771
  vertex 28.375711 -29.493134 167.2428
 endloop
endfacet
facet normal 0.465406 0.8819829 -0.07418382
 outer loop
  vertex 0 75.92492 144.54825
  vertex 0 77.761 166.37772
  vertex 24.472864 64.864174 166.58041
 endloop
endfacet
facet normal 0.4551163 0.88844097 -0.05951202
 outer loop
  vertex 0 75.92492 144.54825
  vertex 24.472864 64.864174 166.58041
  vertex 34.477074 58.270348 144.6496
 endloop
endfacet
facet normal 0.1852054 0.7470062 0.63849884
 outer loop
  vertex 0 44.762028 302.53915
  vertex 17.17983 16.313234 330.83932
  vertex 31.148836 13.549827 330.02045
 endloop
endfacet
facet normal 0.22038184 0.75917214 0.61244553
 outer loop
  vertex 0 44.762028 302.53915
  vertex 31.148836 13.549827 330.02045
  vertex 31.265429 35.685913 302.53915
 endloop
endfacet
facet normal 0.98298156 -0.14289255 0.115451045
 outer loop
  vertex 28.872526 6.165647 305.38693
  vertex 26.075788 -3.7919571 316.8747
  vertex 23.815239 -23.698515 311.4835
 endloop
endfacet
facet normal -0.6785538 0.22302163 0.6998758
 outer loop
  vertex 0 44.762028 302.53915
  vertex 0 -4.681878 318.2949
  vertex 18.84248 -5.930597 336.96124
 endloop
endfacet
facet normal -0.80139667 0.102290735 0.58932173
 outer loop
  vertex 0 44.762028 302.53915
  vertex 18.84248 -5.930597 336.96124
  vertex 17.17983 16.313234 330.83932
 endloop
endfacet
facet normal 0.96085334 -0.27699742 -0.0057564504
 outer loop
  vertex 28.872526 6.165647 305.38693
  vertex 31.148836 13.549827 330.02045
  vertex 25.38684 -6.5759687 336.68436
 endloop
endfacet
facet normal 0.9610994 -0.27615026 -0.0053841574
 outer loop
  vertex 28.872526 6.165647 305.38693
  vertex 25.38684 -6.5759687 336.68436
  vertex 26.075788 -3.7919571 316.8747
 endloop
endfacet
facet normal -0.10309114 -0.9844918 -0.14194393
 outer loop
  vertex 26.075788 -3.7919571 316.8747
  vertex 25.38684 -6.5759687 336.68436
  vertex 18.84248 -5.930597 336.96124
 endloop
endfacet
facet normal 0.028751805 -0.9950059 -0.09558578
 outer loop
  vertex 26.075788 -3.7919571 316.8747
  vertex 18.84248 -5.930597 336.96124
  vertex 0 -4.681878 318.2949
 endloop
endfacet
facet normal 0.99403954 -0.0869241 -0.06579974
 outer loop
  vertex 31.265429 35.685913 302.53915
  vertex 31.148836 13.549827 330.02045
  vertex 28.872526 6.165647 305.38693
 endloop
endfacet
facet normal 0.05526762 -0.15665962 -0.98610514
 outer loop
  vertex 20.353062 -20.286966 217.34958
  vertex 16.484077 -50.33323 221.9061
  vertex 0 -50.98548 221.08585
 endloop
endfacet
facet normal 0.044606168 -0.1497866 -0.9877116
 outer loop
  vertex 20.353062 -20.286966 217.34958
  vertex 0 -50.98548 221.08585
  vertex 0 -21.07335 216.54967
 endloop
endfacet
facet normal 0.99246216 -0.12084058 0.020407304
 outer loop
  vertex 29.650888 -9.216704 251.13478
  vertex 31.279083 7.8264265 272.87112
  vertex 26.905403 -27.120113 278.6412
 endloop
endfacet
facet normal 0.9935303 -0.11020341 0.027437456
 outer loop
  vertex 29.650888 -9.216704 251.13478
  vertex 26.905403 -27.120113 278.6412
  vertex 25.318771 -45.587673 261.91876
 endloop
endfacet
facet normal 0.99662215 -0.07843976 0.024319712
 outer loop
  vertex 31.265429 35.685913 302.53915
  vertex 28.872526 6.165647 305.38693
  vertex 26.905403 -27.120113 278.6412
 endloop
endfacet
facet normal 0.9891007 -0.10710754 0.10103357
 outer loop
  vertex 31.265429 35.685913 302.53915
  vertex 26.905403 -27.120113 278.6412
  vertex 31.279083 7.8264265 272.87112
 endloop
endfacet
facet normal 0.9859983 -0.1429168 -0.08592027
 outer loop
  vertex 26.151258 -21.880642 232.03871
  vertex 29.650888 -9.216704 251.13478
  vertex 25.318771 -45.587673 261.91876
 endloop
endfacet
facet normal 0.9960686 -0.08078686 -0.036345396
 outer loop
  vertex 26.151258 -21.880642 232.03871
  vertex 25.318771 -45.587673 261.91876
  vertex 23.877007 -54.756165 242.78558
 endloop
endfacet
facet normal 0.9067938 -0.18634665 -0.37815335
 outer loop
  vertex 20.353062 -20.286966 217.34958
  vertex 26.151258 -21.880642 232.03871
  vertex 23.877007 -54.756165 242.78558
 endloop
endfacet
facet normal 0.9163967 -0.17275849 -0.36107
 outer loop
  vertex 20.353062 -20.286966 217.34958
  vertex 23.877007 -54.756165 242.78558
  vertex 16.484077 -50.33323 221.9061
 endloop
endfacet
facet normal 0.07096875 -0.72392344 -0.6862203
 outer loop
  vertex 16.443447 -64.34087 213.88776
  vertex 16.918718 -83.677414 234.33586
  vertex 0 -85.14163 234.1308
 endloop
endfacet
facet normal 0.063020274 -0.7211884 -0.6898664
 outer loop
  vertex 16.443447 -64.34087 213.88776
  vertex 0 -85.14163 234.1308
  vertex 0 -64.993126 213.06749
 endloop
endfacet
facet normal 0.9276082 -0.119803466 -0.35382214
 outer loop
  vertex 16.484077 -50.33323 221.9061
  vertex 23.877007 -54.756165 242.78558
  vertex 16.918718 -83.677414 234.33586
 endloop
endfacet
facet normal 0.99983513 0.006749127 -0.016856726
 outer loop
  vertex 16.484077 -50.33323 221.9061
  vertex 16.918718 -83.677414 234.33586
  vertex 16.443447 -64.34087 213.88776
 endloop
endfacet
facet normal 0.97326356 -0.025999453 -0.22821487
 outer loop
  vertex 22.188396 -4.6753726 213.17825
  vertex 26.77076 -2.7597704 232.50233
  vertex 26.151258 -21.880642 232.03871
 endloop
endfacet
facet normal 0.90208757 -0.20719999 -0.37855813
 outer loop
  vertex 22.188396 -4.6753726 213.17825
  vertex 26.151258 -21.880642 232.03871
  vertex 20.353062 -20.286966 217.34958
 endloop
endfacet
facet normal 0.7930615 -0.48483506 0.36876616
 outer loop
  vertex 16.913397 -47.74494 167.89688
  vertex 28.375711 -29.493134 167.2428
  vertex 22.188396 -4.6753726 213.17825
 endloop
endfacet
facet normal 0.7989674 -0.31179026 0.51423526
 outer loop
  vertex 45.641827 -39.8167 65.41107
  vertex 61.179966 1.3938398e-05 65.411064
  vertex 51.993996 1.8015922e-05 79.68331
 endloop
endfacet
facet normal 0.77885926 -0.3180286 0.54058856
 outer loop
  vertex 45.641827 -39.8167 65.41107
  vertex 51.993996 1.8015922e-05 79.68331
  vertex 37.538223 -35.402485 79.68332
 endloop
endfacet
facet normal 0.31428906 0.8697665 0.3804323
 outer loop
  vertex 45.641827 39.81673 65.411064
  vertex 0 56.309357 65.41105
  vertex 0 50.06673 79.683304
 endloop
endfacet
facet normal 0.32614437 0.834882 0.4433981
 outer loop
  vertex 45.641827 39.81673 65.411064
  vertex 0 50.06673 79.683304
  vertex 37.538223 35.402527 79.683304
 endloop
endfacet
facet normal 0.3059164 -0.8465952 0.43553606
 outer loop
  vertex 22.820913 -48.063015 65.41107
  vertex 45.641827 -39.8167 65.41107
  vertex 37.538223 -35.402485 79.68332
 endloop
endfacet
facet normal 0.3316892 -0.8490758 0.41116
 outer loop
  vertex 22.820913 -48.063015 65.41107
  vertex 37.538223 -35.402485 79.68332
  vertex 18.769112 -42.73459 79.68332
 endloop
endfacet
facet normal 0.77885926 0.31802878 0.5405886
 outer loop
  vertex 45.641827 39.81673 65.411064
  vertex 37.538223 35.402527 79.683304
  vertex 51.993996 1.8015922e-05 79.68331
 endloop
endfacet
facet normal 0.79896754 0.3117904 0.51423514
 outer loop
  vertex 45.641827 39.81673 65.411064
  vertex 51.993996 1.8015922e-05 79.68331
  vertex 61.179966 1.3938398e-05 65.411064
 endloop
endfacet
facet normal 0.51632845 -0.08110915 -0.852541
 outer loop
  vertex 58.512764 7.9110312 119.16038
  vertex 49.870148 -46.230038 119.07699
  vertex 35.15639 -30.51278 108.67052
 endloop
endfacet
facet normal 0.61134225 -0.16002887 -0.77501696
 outer loop
  vertex 58.512764 7.9110312 119.16038
  vertex 35.15639 -30.51278 108.67052
  vertex 44.46457 3.780409 108.93191
 endloop
endfacet
facet normal 0.5461026 0.1726051 -0.8197435
 outer loop
  vertex 58.512764 7.9110312 119.16038
  vertex 44.46457 3.780409 108.93191
  vertex 36.07193 30.333748 108.93191
 endloop
endfacet
facet normal 0.5327235 0.1535101 -0.8322502
 outer loop
  vertex 58.512764 7.9110312 119.16038
  vertex 36.07193 30.333748 108.93191
  vertex 46.47761 49.676373 119.16037
 endloop
endfacet
facet normal 0.21881036 -0.4991763 0.83841825
 outer loop
  vertex 21.194565 -54.148804 98.24189
  vertex 42.38913 -44.85833 98.24188
  vertex 35.15639 -30.51278 108.67052
 endloop
endfacet
facet normal 0.18188924 -0.48488402 0.85545534
 outer loop
  vertex 21.194565 -54.148804 98.24189
  vertex 35.15639 -30.51278 108.67052
  vertex 17.578196 -36.87611 108.801216
 endloop
endfacet
facet normal 0.14008318 0.40291807 -0.90445215
 outer loop
  vertex 46.47761 49.676373 119.16037
  vertex 36.07193 30.333748 108.93191
  vertex 0 42.874935 108.93191
 endloop
endfacet
facet normal 0.15542893 0.33528256 -0.929208
 outer loop
  vertex 46.47761 49.676373 119.16037
  vertex 0 42.874935 108.93191
  vertex 0 71.22225 119.16036
 endloop
endfacet
facet normal 0.21872467 -0.27379927 -0.9365861
 outer loop
  vertex 49.870148 -46.230038 119.07699
  vertex 14.013824 -75.060974 119.13168
  vertex 17.578196 -36.87611 108.801216
 endloop
endfacet
facet normal 0.15333259 -0.44172496 -0.8839503
 outer loop
  vertex 49.870148 -46.230038 119.07699
  vertex 17.578196 -36.87611 108.801216
  vertex 35.15639 -30.51278 108.67052
 endloop
endfacet
facet normal 0.498177 -0.2063516 0.84216315
 outer loop
  vertex 42.38913 -44.85833 98.24188
  vertex 60.970074 2.1417056e-05 98.241875
  vertex 44.46457 3.780409 108.93191
 endloop
endfacet
facet normal 0.6680372 -0.18681516 0.720296
 outer loop
  vertex 42.38913 -44.85833 98.24188
  vertex 44.46457 3.780409 108.93191
  vertex 35.15639 -30.51278 108.67052
 endloop
endfacet
facet normal 0.63211626 0.2618313 0.72929645
 outer loop
  vertex 60.970074 2.1417056e-05 98.241875
  vertex 42.38913 44.85838 98.24187
  vertex 36.07193 30.333748 108.93191
 endloop
endfacet
facet normal 0.5633291 0.17804983 0.8068201
 outer loop
  vertex 60.970074 2.1417056e-05 98.241875
  vertex 36.07193 30.333748 108.93191
  vertex 44.46457 3.780409 108.93191
 endloop
endfacet
facet normal 0.9238762 -0.37724292 0.06434719
 outer loop
  vertex 37.538223 -35.402485 79.68332
  vertex 51.993996 1.8015922e-05 79.68331
  vertex 51.316612 1.975019e-05 89.40897
 endloop
endfacet
facet normal 0.9206258 -0.381336 0.083851315
 outer loop
  vertex 37.538223 -35.402485 79.68332
  vertex 51.316612 1.975019e-05 89.40897
  vertex 36.328964 -36.183334 89.40898
 endloop
endfacet
facet normal 0.3618504 0.9262843 -0.10517405
 outer loop
  vertex 37.538223 35.402527 79.683304
  vertex 0 50.06673 79.683304
  vertex 0 51.17102 89.40896
 endloop
endfacet
facet normal 0.38123626 0.9240893 -0.026791448
 outer loop
  vertex 37.538223 35.402527 79.683304
  vertex 0 51.17102 89.40896
  vertex 36.328964 36.18338 89.40897
 endloop
endfacet
facet normal 0.3637099 -0.9310441 -0.029528659
 outer loop
  vertex 18.769112 -42.73459 79.68332
  vertex 37.538223 -35.402485 79.68332
  vertex 36.328964 -36.183334 89.40898
 endloop
endfacet
facet normal 0.38054818 -0.9224215 -0.065738715
 outer loop
  vertex 18.769112 -42.73459 79.68332
  vertex 36.328964 -36.183334 89.40898
  vertex 18.164482 -43.677155 89.40898
 endloop
endfacet
facet normal 0.9206258 0.38133594 0.083851054
 outer loop
  vertex 37.538223 35.402527 79.683304
  vertex 36.328964 36.18338 89.40897
  vertex 51.316612 1.975019e-05 89.40897
 endloop
endfacet
facet normal 0.9238762 0.37724286 0.06434706
 outer loop
  vertex 37.538223 35.402527 79.683304
  vertex 51.316612 1.975019e-05 89.40897
  vertex 51.993996 1.8015922e-05 79.68331
 endloop
endfacet
facet normal 0.5417843 0.22441433 -0.81000495
 outer loop
  vertex 54.527493 51.80913 1.2434801
  vertex 76.243675 -0.61834687 1.243492
  vertex 73.97052 -0.618347 -0.27694294
 endloop
endfacet
facet normal 0.5417845 0.22441438 -0.8100048
 outer loop
  vertex 54.527493 51.80913 1.2434801
  vertex 73.97052 -0.618347 -0.27694294
  vertex 52.892258 50.269062 -0.27695477
 endloop
endfacet
facet normal 0.2147473 -0.5590563 -0.8008368
 outer loop
  vertex 28.26708 -63.903923 1.2435077
  vertex 0 -74.76201 1.2435106
  vertex 0 -72.584015 -0.2769255
 endloop
endfacet
facet normal 0.21497078 -0.55989766 -0.80018884
 outer loop
  vertex 28.26708 -63.903923 1.2435077
  vertex 0 -72.584015 -0.2769255
  vertex 27.449461 -62.044884 -0.27692834
 endloop
endfacet
facet normal 0.22139974 0.55591583 -0.80121136
 outer loop
  vertex 0 73.525314 1.2434744
  vertex 54.527493 51.80913 1.2434801
  vertex 52.892258 50.269062 -0.27695477
 endloop
endfacet
facet normal 0.22240013 0.55807465 -0.79943156
 outer loop
  vertex 0 73.525314 1.2434744
  vertex 52.892258 50.269062 -0.27695477
  vertex 0 71.34732 -0.2769594
 endloop
endfacet
facet normal 0.54178405 -0.22441463 -0.810005
 outer loop
  vertex 76.243675 -0.61834687 1.243492
  vertex 54.527493 -53.045826 1.243505
  vertex 52.892258 -51.50575 -0.27693012
 endloop
endfacet
facet normal 0.54178435 -0.22441472 -0.8100048
 outer loop
  vertex 76.243675 -0.61834687 1.243492
  vertex 52.892258 -51.50575 -0.27693012
  vertex 73.97052 -0.618347 -0.27694294
 endloop
endfacet
facet normal 0.19816937 0.45208907 0.8696806
 outer loop
  vertex 42.38913 44.85838 98.24187
  vertex 0 63.43932 98.24185
  vertex 0 42.874935 108.93191
 endloop
endfacet
facet normal 0.18407248 0.5294435 0.8281347
 outer loop
  vertex 42.38913 44.85838 98.24187
  vertex 0 42.874935 108.93191
  vertex 36.07193 30.333748 108.93191
 endloop
endfacet
facet normal 0.10364444 -0.7266809 0.6791117
 outer loop
  vertex 16.913397 -47.74494 167.89688
  vertex 22.188396 -4.6753726 213.17825
  vertex 0 -10.35478 210.48737
 endloop
endfacet
facet normal 0 -0.7514959 0.65973777
 outer loop
  vertex 16.913397 -47.74494 167.89688
  vertex 0 -10.35478 210.48737
  vertex 0 -47.74494 167.89688
 endloop
endfacet
facet normal 0.62302524 -0.5642822 0.54168737
 outer loop
  vertex 15.488932 -64.778114 145.30783
  vertex 37.33843 -41.421886 144.50795
  vertex 28.375711 -29.493134 167.2428
 endloop
endfacet
facet normal 0.80677676 -0.4951079 0.32245854
 outer loop
  vertex 15.488932 -64.778114 145.30783
  vertex 28.375711 -29.493134 167.2428
  vertex 16.913397 -47.74494 167.89688
 endloop
endfacet
facet normal 0.45468768 0.88751715 -0.07464895
 outer loop
  vertex 0 74.088844 122.718765
  vertex 0 75.92492 144.54825
  vertex 34.477074 58.270348 144.6496
 endloop
endfacet
facet normal 0.42413676 0.9054952 -0.013653001
 outer loop
  vertex 0 74.088844 122.718765
  vertex 34.477074 58.270348 144.6496
  vertex 47.848366 51.67652 122.71877
 endloop
endfacet
facet normal 0.84416753 -0.1194169 0.52260965
 outer loop
  vertex 52.12549 -46.77011 122.687836
  vertex 59.97011 8.8196125 122.71879
  vertex 46.59193 8.809711 144.3262
 endloop
endfacet
facet normal 0.80204517 -0.1456544 0.57923084
 outer loop
  vertex 52.12549 -46.77011 122.687836
  vertex 46.59193 8.809711 144.3262
  vertex 37.33843 -41.421886 144.50795
 endloop
endfacet
facet normal 0.8616915 0.20803599 0.4628269
 outer loop
  vertex 47.848366 51.67652 122.71877
  vertex 34.477074 58.270348 144.6496
  vertex 46.59193 8.809711 144.3262
 endloop
endfacet
facet normal 0.8266145 0.23380172 0.51190364
 outer loop
  vertex 47.848366 51.67652 122.71877
  vertex 46.59193 8.809711 144.3262
  vertex 59.97011 8.8196125 122.71879
 endloop
endfacet
facet normal 0 -0.8379244 0.54578626
 outer loop
  vertex 0 -79.491585 122.71881
  vertex 14.064466 -79.491585 122.71881
  vertex 15.488932 -64.778114 145.30783
 endloop
endfacet
facet normal 0 -0.8379244 0.54578626
 outer loop
  vertex 0 -79.491585 122.71881
  vertex 15.488932 -64.778114 145.30783
  vertex 0 -64.778114 145.30783
 endloop
endfacet
facet normal 0.39424115 -0.16330035 -0.90438205
 outer loop
  vertex 36.328964 -36.183334 89.40898
  vertex 51.316612 1.975019e-05 89.40897
  vertex 60.11753 2.0039839e-05 93.2455
 endloop
endfacet
facet normal 0.39424098 -0.16330023 -0.9043821
 outer loop
  vertex 36.328964 -36.183334 89.40898
  vertex 60.11753 2.0039839e-05 93.2455
  vertex 42.153294 -43.369457 93.24551
 endloop
endfacet
facet normal 0.14418396 0.34949064 -0.9257793
 outer loop
  vertex 36.328964 36.18338 89.40897
  vertex 0 51.17102 89.40896
  vertex 0 61.33374 93.24548
 endloop
endfacet
facet normal 0.1552793 0.36436433 -0.91821945
 outer loop
  vertex 36.328964 36.18338 89.40897
  vertex 0 61.33374 93.24548
  vertex 42.153294 43.369503 93.24549
 endloop
endfacet
facet normal 0.15148227 -0.36718214 -0.91773117
 outer loop
  vertex 18.164482 -43.677155 89.40898
  vertex 36.328964 -36.183334 89.40898
  vertex 42.153294 -43.369457 93.24551
 endloop
endfacet
facet normal 0.15199588 -0.3566608 -0.9217865
 outer loop
  vertex 18.164482 -43.677155 89.40898
  vertex 42.153294 -43.369457 93.24551
  vertex 21.076647 -52.351578 93.245514
 endloop
endfacet
facet normal 0.39424056 0.16329971 -0.9043824
 outer loop
  vertex 36.328964 36.18338 89.40897
  vertex 42.153294 43.369503 93.24549
  vertex 60.11753 2.0039839e-05 93.2455
 endloop
endfacet
facet normal 0.39424118 0.16330013 -0.90438205
 outer loop
  vertex 36.328964 36.18338 89.40897
  vertex 60.11753 2.0039839e-05 93.2455
  vertex 51.316612 1.975019e-05 89.40897
 endloop
endfacet
facet normal 0.7551143 -0.31277904 -0.5761698
 outer loop
  vertex 72.89233 5.9927293e-06 26.394499
  vertex 77.00203 7.399367e-06 31.780577
  vertex 54.448082 -54.44999 31.78059
 endloop
endfacet
facet normal 0.75511444 -0.312779 -0.5761696
 outer loop
  vertex 72.89233 5.9927293e-06 26.394499
  vertex 54.448082 -54.44999 31.78059
  vertex 51.542084 -51.543995 26.39451
 endloop
endfacet
facet normal 0.7551145 0.31277877 -0.5761697
 outer loop
  vertex 72.89233 5.9927293e-06 26.394499
  vertex 51.542084 51.544014 26.394485
  vertex 54.448082 54.45001 31.780563
 endloop
endfacet
facet normal 0.7551143 0.31277868 -0.57616997
 outer loop
  vertex 72.89233 5.9927293e-06 26.394499
  vertex 54.448082 54.45001 31.780563
  vertex 77.00203 7.399367e-06 31.780577
 endloop
endfacet
facet normal 0.3127884 -0.75511056 -0.5761696
 outer loop
  vertex 25.771042 -62.219116 26.394512
  vertex 27.224041 -65.72697 31.780594
  vertex 0 -77.003944 31.780596
 endloop
endfacet
facet normal 0.3127894 -0.7551117 -0.57616764
 outer loop
  vertex 25.771042 -62.219116 26.394512
  vertex 0 -77.003944 31.780596
  vertex 0 -72.89424 26.394516
 endloop
endfacet
facet normal 0.31278926 0.7551116 -0.57616794
 outer loop
  vertex 51.542084 51.544014 26.394485
  vertex 0 72.89425 26.394482
  vertex 0 77.00395 31.780558
 endloop
endfacet
facet normal 0.31278786 0.7551095 -0.57617134
 outer loop
  vertex 51.542084 51.544014 26.394485
  vertex 0 77.00395 31.780558
  vertex 54.448082 54.45001 31.780563
 endloop
endfacet
facet normal 0.067214064 0.26941958 0.96067446
 outer loop
  vertex 17.17983 16.313234 330.83932
  vertex 18.84248 -5.930597 336.96124
  vertex 25.38684 -6.5759687 336.68436
 endloop
endfacet
facet normal 0.11188671 0.28334197 0.95246977
 outer loop
  vertex 17.17983 16.313234 330.83932
  vertex 25.38684 -6.5759687 336.68436
  vertex 31.148836 13.549827 330.02045
 endloop
endfacet
facet normal 0.33551136 -0.8400849 -0.4262504
 outer loop
  vertex 28.26708 -63.903923 1.2435077
  vertex 28.62621 -67.19634 8.015123
  vertex 0 -78.62902 8.015127
 endloop
endfacet
facet normal 0.31642666 -0.82376033 -0.4704181
 outer loop
  vertex 28.26708 -63.903923 1.2435077
  vertex 0 -78.62902 8.015127
  vertex 0 -74.76201 1.2435106
 endloop
endfacet
facet normal 0.334831 0.8123532 -0.4774626
 outer loop
  vertex 0 73.525314 1.2434744
  vertex 0 77.50535 8.01509
  vertex 55.47498 54.639996 8.015096
 endloop
endfacet
facet normal 0.33864555 0.8503102 -0.40285432
 outer loop
  vertex 0 73.525314 1.2434744
  vertex 55.47498 54.639996 8.015096
  vertex 54.527493 51.80913 1.2434801
 endloop
endfacet
facet normal 0.88749874 0.36761394 -0.27785963
 outer loop
  vertex 54.527493 51.80913 1.2434801
  vertex 55.47498 54.639996 8.015096
  vertex 78.340324 -0.5618364 8.015108
 endloop
endfacet
facet normal 0.8874991 0.3676143 -0.2778581
 outer loop
  vertex 54.527493 51.80913 1.2434801
  vertex 78.340324 -0.5618364 8.015108
  vertex 76.243675 -0.61834687 1.243492
 endloop
endfacet
facet normal 0.88899916 -0.3682356 -0.27218175
 outer loop
  vertex 76.243675 -0.61834687 1.243492
  vertex 78.340324 -0.5618364 8.015108
  vertex 55.47498 -55.763668 8.015121
 endloop
endfacet
facet normal 0.8889988 -0.3682356 -0.2721833
 outer loop
  vertex 76.243675 -0.61834687 1.243492
  vertex 55.47498 -55.763668 8.015121
  vertex 54.527493 -53.045826 1.243505
 endloop
endfacet
facet normal 0.3606829 -0.84703654 -0.39043173
 outer loop
  vertex 54.527493 -53.045826 1.243505
  vertex 55.47498 -55.763668 8.015121
  vertex 28.62621 -67.19634 8.015123
 endloop
endfacet
facet normal 0.34586814 -0.83648556 -0.42504963
 outer loop
  vertex 54.527493 -53.045826 1.243505
  vertex 28.62621 -67.19634 8.015123
  vertex 28.26708 -63.903923 1.2435077
 endloop
endfacet
facet normal 0.3127879 -0.7551095 -0.57617134
 outer loop
  vertex 51.542084 -51.543995 26.39451
  vertex 54.448082 -54.44999 31.78059
  vertex 27.224041 -65.72697 31.780594
 endloop
endfacet
facet normal 0.31278887 -0.75511044 -0.5761696
 outer loop
  vertex 51.542084 -51.543995 26.39451
  vertex 27.224041 -65.72697 31.780594
  vertex 25.771042 -62.219116 26.394512
 endloop
endfacet
facet normal 0.14775068 -0.35813797 -0.92190397
 outer loop
  vertex 0 -51.170975 89.40899
  vertex 18.164482 -43.677155 89.40898
  vertex 21.076647 -52.351578 93.245514
 endloop
endfacet
facet normal 0.14883667 -0.34924787 -0.92513436
 outer loop
  vertex 0 -51.170975 89.40899
  vertex 21.076647 -52.351578 93.245514
  vertex 0 -61.333694 93.24552
 endloop
endfacet
facet normal 0.22903448 -0.55392236 -0.8004457
 outer loop
  vertex 54.527493 -53.045826 1.243505
  vertex 28.26708 -63.903923 1.2435077
  vertex 27.449461 -62.044884 -0.27692834
 endloop
endfacet
facet normal 0.22807422 -0.5506 -0.8030079
 outer loop
  vertex 54.527493 -53.045826 1.243505
  vertex 27.449461 -62.044884 -0.27692834
  vertex 52.892258 -51.50575 -0.27693012
 endloop
endfacet
facet normal 0.36303863 -0.92932624 -0.06749642
 outer loop
  vertex 0 -50.06669 79.68332
  vertex 18.769112 -42.73459 79.68332
  vertex 18.164482 -43.677155 89.40898
 endloop
endfacet
facet normal 0.3792895 -0.9193707 -0.10438856
 outer loop
  vertex 0 -50.06669 79.68332
  vertex 18.164482 -43.677155 89.40898
  vertex 0 -51.170975 89.40899
 endloop
endfacet
facet normal 0.06104512 -0.6276501 -0.77609855
 outer loop
  vertex 0 -76.459465 119.1604
  vertex 14.013824 -75.060974 119.13168
  vertex 14.064466 -79.491585 122.71881
 endloop
endfacet
facet normal 0 -0.7611502 -0.64857566
 outer loop
  vertex 0 -76.459465 119.1604
  vertex 14.064466 -79.491585 122.71881
  vertex 0 -79.491585 122.71881
 endloop
endfacet
facet normal 0.20941013 -0.47773218 0.8531819
 outer loop
  vertex 0 -63.439274 98.24189
  vertex 21.194565 -54.148804 98.24189
  vertex 17.578196 -36.87611 108.801216
 endloop
endfacet
facet normal 0.17323875 -0.4606785 0.8704962
 outer loop
  vertex 0 -63.439274 98.24189
  vertex 17.578196 -36.87611 108.801216
  vertex 0 -43.239445 108.931915
 endloop
endfacet
facet normal 0.3101876 -0.8584152 0.4085426
 outer loop
  vertex 0 -56.309326 65.41109
  vertex 22.820913 -48.063015 65.41107
  vertex 18.769112 -42.73459 79.68332
 endloop
endfacet
facet normal 0.33697504 -0.8626071 0.37730217
 outer loop
  vertex 0 -56.309326 65.41109
  vertex 18.769112 -42.73459 79.68332
  vertex 0 -50.06669 79.68332
 endloop
endfacet
facet normal 0.37116167 -0.87093574 -0.3220404
 outer loop
  vertex 0 -61.333694 93.24552
  vertex 21.076647 -52.351578 93.245514
  vertex 21.194565 -54.148804 98.24189
 endloop
endfacet
facet normal 0.37453642 -0.85443866 -0.36007917
 outer loop
  vertex 0 -61.333694 93.24552
  vertex 21.194565 -54.148804 98.24189
  vertex 0 -63.439274 98.24189
 endloop
endfacet
facet normal 0.21791655 -0.5260781 0.82204264
 outer loop
  vertex 0 -79.610085 51.271698
  vertex 28.145456 -67.95145 51.27169
  vertex 22.820913 -48.063015 65.41107
 endloop
endfacet
facet normal 0.18425062 -0.5098952 0.8402729
 outer loop
  vertex 0 -79.610085 51.271698
  vertex 22.820913 -48.063015 65.41107
  vertex 0 -56.309326 65.41109
 endloop
endfacet
facet normal 0.1824866 -0.44054472 0.87898743
 outer loop
  vertex 55.843777 -56.041977 23.247066
  vertex 51.542084 -51.543995 26.39451
  vertex 25.771042 -62.219116 26.394512
 endloop
endfacet
facet normal 0.18248694 -0.4405469 0.87898636
 outer loop
  vertex 55.843777 -56.041977 23.247066
  vertex 25.771042 -62.219116 26.394512
  vertex 27.779993 -67.66678 23.24707
 endloop
endfacet
facet normal 0.38256398 -0.9235592 -0.02613739
 outer loop
  vertex 55.47498 -55.763668 8.015121
  vertex 55.843777 -56.041977 23.247066
  vertex 27.779993 -67.66678 23.24707
 endloop
endfacet
facet normal 0.39176887 -0.92003965 -0.006650406
 outer loop
  vertex 55.47498 -55.763668 8.015121
  vertex 27.779993 -67.66678 23.24707
  vertex 28.62621 -67.19634 8.015123
 endloop
endfacet
facet normal 0.37980756 -0.91690534 -0.12259945
 outer loop
  vertex 56.290913 -56.29282 51.27169
  vertex 28.145456 -67.95145 51.27169
  vertex 27.224041 -65.72697 31.780594
 endloop
endfacet
facet normal 0.37980828 -0.916905 -0.122600734
 outer loop
  vertex 56.290913 -56.29282 51.27169
  vertex 27.224041 -65.72697 31.780594
  vertex 54.448082 -54.44999 31.78059
 endloop
endfacet
facet normal 0.5523773 -0.6420119 0.53169566
 outer loop
  vertex 14.064466 -79.491585 122.71881
  vertex 52.12549 -46.77011 122.687836
  vertex 37.33843 -41.421886 144.50795
 endloop
endfacet
facet normal 0.6857085 -0.62892437 0.3664122
 outer loop
  vertex 14.064466 -79.491585 122.71881
  vertex 37.33843 -41.421886 144.50795
  vertex 15.488932 -64.778114 145.30783
 endloop
endfacet
facet normal 0.08984799 -0.26790017 -0.95924807
 outer loop
  vertex 0 -43.239445 108.931915
  vertex 17.578196 -36.87611 108.801216
  vertex 14.013824 -75.060974 119.13168
 endloop
endfacet
facet normal 0.027397357 -0.29415777 -0.9553641
 outer loop
  vertex 0 -43.239445 108.931915
  vertex 14.013824 -75.060974 119.13168
  vertex 0 -76.459465 119.1604
 endloop
endfacet
facet normal 0.47319672 -0.55106443 -0.687323
 outer loop
  vertex 52.12549 -46.77011 122.687836
  vertex 14.064466 -79.491585 122.71881
  vertex 14.013824 -75.060974 119.13168
 endloop
endfacet
facet normal 0.5583169 -0.6952238 -0.45270985
 outer loop
  vertex 52.12549 -46.77011 122.687836
  vertex 14.013824 -75.060974 119.13168
  vertex 49.870148 -46.230038 119.07699
 endloop
endfacet
facet normal 0.3490871 0.7530317 -0.5577468
 outer loop
  vertex 47.848366 51.67652 122.71877
  vertex 46.47761 49.676373 119.16037
  vertex 0 71.22225 119.16036
 endloop
endfacet
facet normal 0.34268004 0.7315919 -0.5893587
 outer loop
  vertex 47.848366 51.67652 122.71877
  vertex 0 71.22225 119.16036
  vertex 0 74.088844 122.718765
 endloop
endfacet
facet normal 0.8715614 0.25115013 -0.4210752
 outer loop
  vertex 59.97011 8.8196125 122.71879
  vertex 58.512764 7.9110312 119.16038
  vertex 46.47761 49.676373 119.16037
 endloop
endfacet
facet normal 0.8524457 0.24110754 -0.46390033
 outer loop
  vertex 59.97011 8.8196125 122.71879
  vertex 46.47761 49.676373 119.16037
  vertex 47.848366 51.67652 122.71877
 endloop
endfacet
facet normal 0.83429503 -0.1174328 -0.53866625
 outer loop
  vertex 59.97011 8.8196125 122.71879
  vertex 52.12549 -46.77011 122.687836
  vertex 49.870148 -46.230038 119.07699
 endloop
endfacet
facet normal 0.927911 -0.1475965 -0.3423396
 outer loop
  vertex 59.97011 8.8196125 122.71879
  vertex 49.870148 -46.230038 119.07699
  vertex 58.512764 7.9110312 119.16038
 endloop
endfacet
facet normal -0.3798084 -0.91690516 -0.12259947
 outer loop
  vertex -28.145456 -67.95145 51.27169
  vertex -27.224041 -65.72697 31.780594
  vertex 0 -77.003944 31.780596
 endloop
endfacet
facet normal -0.37980792 -0.9169054 -0.122598715
 outer loop
  vertex -28.145456 -67.95145 51.27169
  vertex 0 -77.003944 31.780596
  vertex 0 -79.610085 51.271698
 endloop
endfacet
facet normal 0 -0.7984469 0.60206527
 outer loop
  vertex 0 -64.778114 145.30783
  vertex 0 -47.74494 167.89688
  vertex -16.913397 -47.74494 167.89688
 endloop
endfacet
facet normal 0 -0.7984469 0.60206527
 outer loop
  vertex 0 -64.778114 145.30783
  vertex -16.913397 -47.74494 167.89688
  vertex -15.488932 -64.778114 145.30783
 endloop
endfacet
facet normal -0.17930937 0.43068773 0.8845091
 outer loop
  vertex 0 79.46663 23.247036
  vertex -55.843777 56.217026 23.247042
  vertex -51.542084 51.544014 26.394485
 endloop
endfacet
facet normal -0.17611602 0.42516583 0.8878159
 outer loop
  vertex 0 79.46663 23.247036
  vertex -51.542084 51.544014 26.394485
  vertex 0 72.89425 26.394482
 endloop
endfacet
facet normal -0.44286242 0.18343998 0.8776233
 outer loop
  vertex -79.09338 0.087525755 23.247055
  vertex -72.89233 5.9927293e-06 26.394499
  vertex -51.542084 51.544014 26.394485
 endloop
endfacet
facet normal -0.4428618 0.18343964 0.8776236
 outer loop
  vertex -79.09338 0.087525755 23.247055
  vertex -51.542084 51.544014 26.394485
  vertex -55.843777 56.217026 23.247042
 endloop
endfacet
facet normal -0.44685724 -0.1850943 0.87524784
 outer loop
  vertex -55.843777 -56.041977 23.247066
  vertex -51.542084 -51.543995 26.39451
  vertex -72.89233 5.9927293e-06 26.394499
 endloop
endfacet
facet normal -0.4468579 -0.18509446 0.8752474
 outer loop
  vertex -55.843777 -56.041977 23.247066
  vertex -72.89233 5.9927293e-06 26.394499
  vertex -79.09338 0.087525755 23.247055
 endloop
endfacet
facet normal -0.9234815 -0.38251856 -0.02934857
 outer loop
  vertex -78.340324 -0.5618364 8.015108
  vertex -55.47498 -55.763668 8.015121
  vertex -55.843777 -56.041977 23.247066
 endloop
endfacet
facet normal -0.92348146 -0.38251868 -0.029349137
 outer loop
  vertex -78.340324 -0.5618364 8.015108
  vertex -55.843777 -56.041977 23.247066
  vertex -79.09338 0.087525755 23.247055
 endloop
endfacet
facet normal -0.9221095 0.38195023 -0.061871756
 outer loop
  vertex -55.47498 54.639996 8.015096
  vertex -78.340324 -0.5618364 8.015108
  vertex -79.09338 0.087525755 23.247055
 endloop
endfacet
facet normal -0.9221094 0.38195035 -0.061871175
 outer loop
  vertex -55.47498 54.639996 8.015096
  vertex -79.09338 0.087525755 23.247055
  vertex -55.843777 56.217026 23.247042
 endloop
endfacet
facet normal -0.37899202 0.91949487 -0.10437553
 outer loop
  vertex 0 77.50535 8.01509
  vertex -55.47498 54.639996 8.015096
  vertex -55.843777 56.217026 23.247042
 endloop
endfacet
facet normal -0.3816658 0.91673213 -0.11803943
 outer loop
  vertex 0 77.50535 8.01509
  vertex -55.843777 56.217026 23.247042
  vertex 0 79.46663 23.247036
 endloop
endfacet
facet normal -0.37059042 -0.9279189 -0.04036264
 outer loop
  vertex -28.62621 -67.19634 8.015123
  vertex 0 -78.62902 8.015127
  vertex 0 -79.29158 23.247072
 endloop
endfacet
facet normal -0.38601455 -0.9224658 -0.0070449845
 outer loop
  vertex -28.62621 -67.19634 8.015123
  vertex 0 -79.29158 23.247072
  vertex -27.779993 -67.66678 23.24707
 endloop
endfacet
facet normal -0.9169098 -0.37979683 -0.122600086
 outer loop
  vertex -77.00203 7.399367e-06 31.780577
  vertex -54.448082 -54.44999 31.78059
  vertex -56.290913 -56.29282 51.27169
 endloop
endfacet
facet normal -0.9169099 -0.37979683 -0.12259996
 outer loop
  vertex -77.00203 7.399367e-06 31.780577
  vertex -56.290913 -56.29282 51.27169
  vertex -79.608185 1.1870904e-05 51.271675
 endloop
endfacet
facet normal -0.3798082 0.91690516 -0.122600146
 outer loop
  vertex 0 79.61012 51.271656
  vertex 0 77.00395 31.780558
  vertex -54.448082 54.45001 31.780563
 endloop
endfacet
facet normal -0.3798079 0.9169051 -0.122600876
 outer loop
  vertex 0 79.61012 51.271656
  vertex -54.448082 54.45001 31.780563
  vertex -56.290913 56.292843 51.271664
 endloop
endfacet
facet normal -0.1816581 -0.43411142 0.8823535
 outer loop
  vertex -27.779993 -67.66678 23.24707
  vertex 0 -79.29158 23.247072
  vertex 0 -72.89424 26.394516
 endloop
endfacet
facet normal -0.18248758 -0.44054672 0.8789863
 outer loop
  vertex -27.779993 -67.66678 23.24707
  vertex 0 -72.89424 26.394516
  vertex -25.771042 -62.219116 26.394512
 endloop
endfacet
facet normal -0.9169098 0.37979677 -0.12260016
 outer loop
  vertex -56.290913 56.292843 51.271664
  vertex -54.448082 54.45001 31.780563
  vertex -77.00203 7.399367e-06 31.780577
 endloop
endfacet
facet normal -0.9169099 0.37979677 -0.12260012
 outer loop
  vertex -56.290913 56.292843 51.271664
  vertex -77.00203 7.399367e-06 31.780577
  vertex -79.608185 1.1870904e-05 51.271675
 endloop
endfacet
facet normal -0.6188333 -0.24149437 0.7474797
 outer loop
  vertex -56.290913 -56.29282 51.27169
  vertex -45.641827 -39.8167 65.41107
  vertex -61.179966 1.3938398e-05 65.411064
 endloop
endfacet
facet normal -0.5902578 -0.24449275 0.7692978
 outer loop
  vertex -56.290913 -56.29282 51.27169
  vertex -61.179966 1.3938398e-05 65.411064
  vertex -79.608185 1.1870904e-05 51.271675
 endloop
endfacet
facet normal -0.19286245 -0.53372896 0.82336956
 outer loop
  vertex -28.145456 -67.95145 51.27169
  vertex -22.820913 -48.063015 65.41107
  vertex -45.641827 -39.8167 65.41107
 endloop
endfacet
facet normal -0.22618769 -0.5460468 0.8066424
 outer loop
  vertex -28.145456 -67.95145 51.27169
  vertex -45.641827 -39.8167 65.41107
  vertex -56.290913 -56.29282 51.27169
 endloop
endfacet
facet normal -0.20210336 0.5593032 0.8039491
 outer loop
  vertex -56.290913 56.292843 51.271664
  vertex -45.641827 39.81673 65.411064
  vertex 0 56.309357 65.41105
 endloop
endfacet
facet normal -0.21009572 0.5071984 0.8358287
 outer loop
  vertex -56.290913 56.292843 51.271664
  vertex 0 56.309357 65.41105
  vertex 0 79.61012 51.271656
 endloop
endfacet
facet normal -0.59025776 0.24449313 0.76929766
 outer loop
  vertex -56.290913 56.292843 51.271664
  vertex -79.608185 1.1870904e-05 51.271675
  vertex -61.179966 1.3938398e-05 65.411064
 endloop
endfacet
facet normal -0.6188338 0.24149469 0.7474792
 outer loop
  vertex -56.290913 56.292843 51.271664
  vertex -61.179966 1.3938398e-05 65.411064
  vertex -45.641827 39.81673 65.411064
 endloop
endfacet
facet normal -0.4642699 0.8793269 -0.10600818
 outer loop
  vertex 0 77.761 166.37772
  vertex -24.472864 64.864174 166.58041
  vertex -21.645294 71.612885 210.17674
 endloop
endfacet
facet normal -0.46144098 0.88100994 -0.104373835
 outer loop
  vertex 0 77.761 166.37772
  vertex -21.645294 71.612885 210.17674
  vertex 0 82.954994 210.21973
 endloop
endfacet
facet normal -0.9431221 -0.22233702 0.24715766
 outer loop
  vertex -28.375711 -29.493134 167.2428
  vertex -22.188396 -4.6753726 213.17825
  vertex -30.875647 28.312908 209.70427
 endloop
endfacet
facet normal -0.9361951 -0.23347658 0.2627307
 outer loop
  vertex -28.375711 -29.493134 167.2428
  vertex -30.875647 28.312908 209.70427
  vertex -39.124508 12.150058 165.94771
 endloop
endfacet
facet normal -0.96042246 0.26595092 0.08281881
 outer loop
  vertex -24.472864 64.864174 166.58041
  vertex -39.124508 12.150058 165.94771
  vertex -30.875647 28.312908 209.70427
 endloop
endfacet
facet normal -0.9776182 0.20806062 0.031198572
 outer loop
  vertex -24.472864 64.864174 166.58041
  vertex -30.875647 28.312908 209.70427
  vertex -21.645294 71.612885 210.17674
 endloop
endfacet
facet normal -0.40350726 0.79257804 0.45716736
 outer loop
  vertex 0 76.42724 259.50272
  vertex -24.177061 64.96624 258.03305
  vertex -31.265429 35.685913 302.53915
 endloop
endfacet
facet normal -0.2276794 0.78431076 0.5770776
 outer loop
  vertex 0 76.42724 259.50272
  vertex -31.265429 35.685913 302.53915
  vertex 0 44.762028 302.53915
 endloop
endfacet
facet normal -0.98922366 0.06970547 -0.12875433
 outer loop
  vertex -26.77076 -2.7597704 232.50233
  vertex -29.650888 -9.216704 251.13478
  vertex -31.279083 7.8264265 272.87112
 endloop
endfacet
facet normal -0.9935492 -0.06263705 -0.09453226
 outer loop
  vertex -26.77076 -2.7597704 232.50233
  vertex -31.279083 7.8264265 272.87112
  vertex -30.300089 32.458805 246.26033
 endloop
endfacet
facet normal -0.983693 0.14858295 0.10134691
 outer loop
  vertex -24.177061 64.96624 258.03305
  vertex -30.300089 32.458805 246.26033
  vertex -31.279083 7.8264265 272.87112
 endloop
endfacet
facet normal -0.99075985 0.09909709 -0.092600204
 outer loop
  vertex -24.177061 64.96624 258.03305
  vertex -31.279083 7.8264265 272.87112
  vertex -31.265429 35.685913 302.53915
 endloop
endfacet
facet normal -0.22560145 -0.47961044 -0.84798455
 outer loop
  vertex -22.188396 -4.6753726 213.17825
  vertex 0 -10.35478 210.48737
  vertex 0 -21.07335 216.54967
 endloop
endfacet
facet normal -0.048035737 -0.26310742 -0.96357
 outer loop
  vertex -22.188396 -4.6753726 213.17825
  vertex 0 -21.07335 216.54967
  vertex -20.353062 -20.286966 217.34958
 endloop
endfacet
facet normal -0.9863631 -0.028025014 -0.16217992
 outer loop
  vertex -26.77076 -2.7597704 232.50233
  vertex -26.151258 -21.880642 232.03871
  vertex -29.650888 -9.216704 251.13478
 endloop
endfacet
facet normal -0.1292079 -0.18699454 0.97382665
 outer loop
  vertex -23.815239 -23.698515 311.4835
  vertex 0 -25.974691 314.20624
  vertex 0 -4.681878 318.2949
 endloop
endfacet
facet normal -0.06150007 -0.2674143 0.961617
 outer loop
  vertex -23.815239 -23.698515 311.4835
  vertex 0 -4.681878 318.2949
  vertex -26.075788 -3.7919571 316.8747
 endloop
endfacet
facet normal -0.9734173 -0.22807932 -0.020945055
 outer loop
  vertex -23.877007 -54.756165 242.78558
  vertex -16.918718 -83.677414 234.33586
  vertex -16.094004 -89.4988 259.3989
 endloop
endfacet
facet normal -0.978026 -0.20692277 0.025457656
 outer loop
  vertex -23.877007 -54.756165 242.78558
  vertex -16.094004 -89.4988 259.3989
  vertex -25.318771 -45.587673 261.91876
 endloop
endfacet
facet normal -0.9867686 -0.13291898 0.09284524
 outer loop
  vertex -28.872526 6.165647 305.38693
  vertex -26.905403 -27.120113 278.6412
  vertex -23.144361 -50.172874 285.61118
 endloop
endfacet
facet normal -0.98260176 -0.14194648 0.11977037
 outer loop
  vertex -28.872526 6.165647 305.38693
  vertex -23.144361 -50.172874 285.61118
  vertex -23.815239 -23.698515 311.4835
 endloop
endfacet
facet normal -0.9768698 -0.2080532 0.049389206
 outer loop
  vertex -25.318771 -45.587673 261.91876
  vertex -16.094004 -89.4988 259.3989
  vertex -23.144361 -50.172874 285.61118
 endloop
endfacet
facet normal -0.9878396 -0.14206709 0.0631663
 outer loop
  vertex -25.318771 -45.587673 261.91876
  vertex -23.144361 -50.172874 285.61118
  vertex -26.905403 -27.120113 278.6412
 endloop
endfacet
facet normal -0.0235215 0.49665463 -0.86762947
 outer loop
  vertex -16.484077 -50.33323 221.9061
  vertex 0 -50.98548 221.08585
  vertex 0 -64.993126 213.06749
 endloop
endfacet
facet normal -0.023583954 0.49660167 -0.86765814
 outer loop
  vertex -16.484077 -50.33323 221.9061
  vertex 0 -64.993126 213.06749
  vertex -16.443447 -64.34087 213.88776
 endloop
endfacet
facet normal -0.0070108073 -0.6990018 0.71508557
 outer loop
  vertex -23.815239 -23.698515 311.4835
  vertex -23.144361 -50.172874 285.61118
  vertex 0 -50.113632 285.896
 endloop
endfacet
facet normal -0.14534642 -0.75285995 0.6419317
 outer loop
  vertex -23.815239 -23.698515 311.4835
  vertex 0 -50.113632 285.896
  vertex 0 -25.974691 314.20624
 endloop
endfacet
facet normal -0.09620835 -0.52824837 0.84362173
 outer loop
  vertex -16.094004 -89.4988 259.3989
  vertex 0 -91.77498 259.80902
  vertex 0 -50.113632 285.896
 endloop
endfacet
facet normal -0.008808242 -0.5556982 0.8313374
 outer loop
  vertex -16.094004 -89.4988 259.3989
  vertex 0 -50.113632 285.896
  vertex -23.144361 -50.172874 285.61118
 endloop
endfacet
facet normal -0.08649964 -0.96458715 -0.24917771
 outer loop
  vertex -16.918718 -83.677414 234.33586
  vertex 0 -85.14163 234.1308
  vertex 0 -91.77498 259.80902
 endloop
endfacet
facet normal -0.13109572 -0.96660537 -0.22019956
 outer loop
  vertex -16.918718 -83.677414 234.33586
  vertex 0 -91.77498 259.80902
  vertex -16.094004 -89.4988 259.3989
 endloop
endfacet
facet normal -0.91260916 0.37801525 -0.15572067
 outer loop
  vertex -42.153294 43.369503 93.24549
  vertex -60.11753 2.0039839e-05 93.2455
  vertex -60.970074 2.1417056e-05 98.241875
 endloop
endfacet
facet normal -0.9126091 0.37801513 -0.1557217
 outer loop
  vertex -42.153294 43.369503 93.24549
  vertex -60.970074 2.1417056e-05 98.241875
  vertex -42.38913 44.85838 98.24187
 endloop
endfacet
facet normal -0.3802221 -0.86740947 -0.32098582
 outer loop
  vertex -21.076647 -52.351578 93.245514
  vertex -21.194565 -54.148804 98.24189
  vertex -42.38913 -44.85833 98.24188
 endloop
endfacet
facet normal -0.3762673 -0.8829157 -0.28086084
 outer loop
  vertex -21.076647 -52.351578 93.245514
  vertex -42.38913 -44.85833 98.24188
  vertex -42.153294 -43.369457 93.24551
 endloop
endfacet
facet normal -0.38538623 0.8791903 -0.2801818
 outer loop
  vertex -42.153294 43.369503 93.24549
  vertex -42.38913 44.85838 98.24187
  vertex 0 63.43932 98.24185
 endloop
endfacet
facet normal -0.36553892 0.85774124 -0.36147097
 outer loop
  vertex -42.153294 43.369503 93.24549
  vertex 0 63.43932 98.24185
  vertex 0 61.33374 93.24548
 endloop
endfacet
facet normal -0.9126091 -0.37801522 -0.15572138
 outer loop
  vertex -42.153294 -43.369457 93.24551
  vertex -42.38913 -44.85833 98.24188
  vertex -60.970074 2.1417056e-05 98.241875
 endloop
endfacet
facet normal -0.91260916 -0.37801534 -0.15572044
 outer loop
  vertex -42.153294 -43.369457 93.24551
  vertex -60.970074 2.1417056e-05 98.241875
  vertex -60.11753 2.0039839e-05 93.2455
 endloop
endfacet
facet normal -0.9779732 0.20856681 -0.008256265
 outer loop
  vertex -21.645294 71.612885 210.17674
  vertex -30.875647 28.312908 209.70427
  vertex -30.300089 32.458805 246.26033
 endloop
endfacet
facet normal -0.9807288 0.19377148 -0.024971569
 outer loop
  vertex -21.645294 71.612885 210.17674
  vertex -30.300089 32.458805 246.26033
  vertex -24.177061 64.96624 258.03305
 endloop
endfacet
facet normal -0.9731588 -0.0076710633 -0.2300069
 outer loop
  vertex -22.188396 -4.6753726 213.17825
  vertex -26.77076 -2.7597704 232.50233
  vertex -30.300089 32.458805 246.26033
 endloop
endfacet
facet normal -0.967232 -0.25012326 0.043595593
 outer loop
  vertex -22.188396 -4.6753726 213.17825
  vertex -30.300089 32.458805 246.26033
  vertex -30.875647 28.312908 209.70427
 endloop
endfacet
facet normal -0.46205828 0.88142115 0.09797391
 outer loop
  vertex 0 82.954994 210.21973
  vertex -21.645294 71.612885 210.17674
  vertex -24.177061 64.96624 258.03305
 endloop
endfacet
facet normal -0.4312065 0.89444125 0.118472815
 outer loop
  vertex 0 82.954994 210.21973
  vertex -24.177061 64.96624 258.03305
  vertex 0 76.42724 259.50272
 endloop
endfacet
facet normal -0.9309765 0.22615892 0.28659177
 outer loop
  vertex -34.477074 58.270348 144.6496
  vertex -46.59193 8.809711 144.3262
  vertex -39.124508 12.150058 165.94771
 endloop
endfacet
facet normal -0.9073607 0.24812411 0.33930972
 outer loop
  vertex -34.477074 58.270348 144.6496
  vertex -39.124508 12.150058 165.94771
  vertex -24.472864 64.864174 166.58041
 endloop
endfacet
facet normal -0.86707 -0.20975183 0.45187813
 outer loop
  vertex -37.33843 -41.421886 144.50795
  vertex -28.375711 -29.493134 167.2428
  vertex -39.124508 12.150058 165.94771
 endloop
endfacet
facet normal -0.9233046 -0.16884 0.34496623
 outer loop
  vertex -37.33843 -41.421886 144.50795
  vertex -39.124508 12.150058 165.94771
  vertex -46.59193 8.809711 144.3262
 endloop
endfacet
facet normal -0.4551163 0.888441 -0.05951203
 outer loop
  vertex 0 75.92492 144.54825
  vertex -34.477074 58.270348 144.6496
  vertex -24.472864 64.864174 166.58041
 endloop
endfacet
facet normal -0.46540606 0.8819829 -0.07418384
 outer loop
  vertex 0 75.92492 144.54825
  vertex -24.472864 64.864174 166.58041
  vertex 0 77.761 166.37772
 endloop
endfacet
facet normal -0.22038187 0.75917214 0.61244553
 outer loop
  vertex 0 44.762028 302.53915
  vertex -31.265429 35.685913 302.53915
  vertex -31.148836 13.549827 330.02045
 endloop
endfacet
facet normal -0.1852054 0.7470062 0.6384988
 outer loop
  vertex 0 44.762028 302.53915
  vertex -31.148836 13.549827 330.02045
  vertex -17.17983 16.313234 330.83932
 endloop
endfacet
facet normal -0.98298156 -0.14289254 0.11545102
 outer loop
  vertex -28.872526 6.165647 305.38693
  vertex -23.815239 -23.698515 311.4835
  vertex -26.075788 -3.7919571 316.8747
 endloop
endfacet
facet normal 0.80139655 0.10229073 0.5893218
 outer loop
  vertex 0 44.762028 302.53915
  vertex -17.17983 16.313234 330.83932
  vertex -18.84248 -5.930597 336.96124
 endloop
endfacet
facet normal 0.67855376 0.22302163 0.6998758
 outer loop
  vertex 0 44.762028 302.53915
  vertex -18.84248 -5.930597 336.96124
  vertex 0 -4.681878 318.2949
 endloop
endfacet
facet normal -0.9610994 -0.27615023 -0.005384151
 outer loop
  vertex -28.872526 6.165647 305.38693
  vertex -26.075788 -3.7919571 316.8747
  vertex -25.38684 -6.5759687 336.68436
 endloop
endfacet
facet normal -0.96085334 -0.27699742 -0.005756444
 outer loop
  vertex -28.872526 6.165647 305.38693
  vertex -25.38684 -6.5759687 336.68436
  vertex -31.148836 13.549827 330.02045
 endloop
endfacet
facet normal -0.028751805 -0.9950059 -0.09558578
 outer loop
  vertex -26.075788 -3.7919571 316.8747
  vertex 0 -4.681878 318.2949
  vertex -18.84248 -5.930597 336.96124
 endloop
endfacet
facet normal 0.10309114 -0.9844918 -0.14194393
 outer loop
  vertex -26.075788 -3.7919571 316.8747
  vertex -18.84248 -5.930597 336.96124
  vertex -25.38684 -6.5759687 336.68436
 endloop
endfacet
facet normal -0.99403954 -0.08692411 -0.06579974
 outer loop
  vertex -31.265429 35.685913 302.53915
  vertex -28.872526 6.165647 305.38693
  vertex -31.148836 13.549827 330.02045
 endloop
endfacet
facet normal -0.044606153 -0.1497866 -0.9877116
 outer loop
  vertex -20.353062 -20.286966 217.34958
  vertex 0 -21.07335 216.54967
  vertex 0 -50.98548 221.08585
 endloop
endfacet
facet normal -0.05526762 -0.15665962 -0.98610514
 outer loop
  vertex -20.353062 -20.286966 217.34958
  vertex 0 -50.98548 221.08585
  vertex -16.484077 -50.33323 221.9061
 endloop
endfacet
facet normal -0.9935303 -0.11020341 0.027437456
 outer loop
  vertex -29.650888 -9.216704 251.13478
  vertex -25.318771 -45.587673 261.91876
  vertex -26.905403 -27.120113 278.6412
 endloop
endfacet
facet normal -0.99246216 -0.12084057 0.020407306
 outer loop
  vertex -29.650888 -9.216704 251.13478
  vertex -26.905403 -27.120113 278.6412
  vertex -31.279083 7.8264265 272.87112
 endloop
endfacet
facet normal -0.9891007 -0.107107535 0.10103357
 outer loop
  vertex -31.265429 35.685913 302.53915
  vertex -31.279083 7.8264265 272.87112
  vertex -26.905403 -27.120113 278.6412
 endloop
endfacet
facet normal -0.99662215 -0.07843975 0.024319706
 outer loop
  vertex -31.265429 35.685913 302.53915
  vertex -26.905403 -27.120113 278.6412
  vertex -28.872526 6.165647 305.38693
 endloop
endfacet
facet normal -0.9960686 -0.08078686 -0.0363454
 outer loop
  vertex -26.151258 -21.880642 232.03871
  vertex -23.877007 -54.756165 242.78558
  vertex -25.318771 -45.587673 261.91876
 endloop
endfacet
facet normal -0.9859983 -0.14291681 -0.08592029
 outer loop
  vertex -26.151258 -21.880642 232.03871
  vertex -25.318771 -45.587673 261.91876
  vertex -29.650888 -9.216704 251.13478
 endloop
endfacet
facet normal -0.9163967 -0.17275847 -0.36106998
 outer loop
  vertex -20.353062 -20.286966 217.34958
  vertex -16.484077 -50.33323 221.9061
  vertex -23.877007 -54.756165 242.78558
 endloop
endfacet
facet normal -0.9067937 -0.18634665 -0.37815338
 outer loop
  vertex -20.353062 -20.286966 217.34958
  vertex -23.877007 -54.756165 242.78558
  vertex -26.151258 -21.880642 232.03871
 endloop
endfacet
facet normal -0.06302032 -0.7211884 -0.6898664
 outer loop
  vertex -16.443447 -64.34087 213.88776
  vertex 0 -64.993126 213.06749
  vertex 0 -85.14163 234.1308
 endloop
endfacet
facet normal -0.07096874 -0.72392344 -0.6862203
 outer loop
  vertex -16.443447 -64.34087 213.88776
  vertex 0 -85.14163 234.1308
  vertex -16.918718 -83.677414 234.33586
 endloop
endfacet
facet normal -0.99983513 0.006749126 -0.01685673
 outer loop
  vertex -16.484077 -50.33323 221.9061
  vertex -16.443447 -64.34087 213.88776
  vertex -16.918718 -83.677414 234.33586
 endloop
endfacet
facet normal -0.9276082 -0.11980348 -0.35382214
 outer loop
  vertex -16.484077 -50.33323 221.9061
  vertex -16.918718 -83.677414 234.33586
  vertex -23.877007 -54.756165 242.78558
 endloop
endfacet
facet normal -0.90208757 -0.20719999 -0.3785581
 outer loop
  vertex -22.188396 -4.6753726 213.17825
  vertex -20.353062 -20.286966 217.34958
  vertex -26.151258 -21.880642 232.03871
 endloop
endfacet
facet normal -0.97326356 -0.025999453 -0.22821486
 outer loop
  vertex -22.188396 -4.6753726 213.17825
  vertex -26.151258 -21.880642 232.03871
  vertex -26.77076 -2.7597704 232.50233
 endloop
endfacet
facet normal -0.7930615 -0.484835 0.36876613
 outer loop
  vertex -16.913397 -47.74494 167.89688
  vertex -22.188396 -4.6753726 213.17825
  vertex -28.375711 -29.493134 167.2428
 endloop
endfacet
facet normal -0.77885926 -0.3180286 0.54058856
 outer loop
  vertex -45.641827 -39.8167 65.41107
  vertex -37.538223 -35.402485 79.68332
  vertex -51.993996 1.8015922e-05 79.68331
 endloop
endfacet
facet normal -0.7989674 -0.31179026 0.51423526
 outer loop
  vertex -45.641827 -39.8167 65.41107
  vertex -51.993996 1.8015922e-05 79.68331
  vertex -61.179966 1.3938398e-05 65.411064
 endloop
endfacet
facet normal -0.32614437 0.834882 0.4433981
 outer loop
  vertex -45.641827 39.81673 65.411064
  vertex -37.538223 35.402527 79.683304
  vertex 0 50.06673 79.683304
 endloop
endfacet
facet normal -0.31428906 0.8697665 0.3804323
 outer loop
  vertex -45.641827 39.81673 65.411064
  vertex 0 50.06673 79.683304
  vertex 0 56.309357 65.41105
 endloop
endfacet
facet normal -0.3316892 -0.8490758 0.41116
 outer loop
  vertex -22.820913 -48.063015 65.41107
  vertex -18.769112 -42.73459 79.68332
  vertex -37.538223 -35.402485 79.68332
 endloop
endfacet
facet normal -0.30591637 -0.8465952 0.43553606
 outer loop
  vertex -22.820913 -48.063015 65.41107
  vertex -37.538223 -35.402485 79.68332
  vertex -45.641827 -39.8167 65.41107
 endloop
endfacet
facet normal -0.79896754 0.31179038 0.51423514
 outer loop
  vertex -45.641827 39.81673 65.411064
  vertex -61.179966 1.3938398e-05 65.411064
  vertex -51.993996 1.8015922e-05 79.68331
 endloop
endfacet
facet normal -0.77885926 0.31802878 0.54058856
 outer loop
  vertex -45.641827 39.81673 65.411064
  vertex -51.993996 1.8015922e-05 79.68331
  vertex -37.538223 35.402527 79.683304
 endloop
endfacet
facet normal -0.6113423 -0.1600289 -0.77501696
 outer loop
  vertex -58.512764 7.9110312 119.16038
  vertex -44.46457 3.780409 108.93191
  vertex -35.15639 -30.51278 108.67052
 endloop
endfacet
facet normal -0.51632845 -0.08110914 -0.8525411
 outer loop
  vertex -58.512764 7.9110312 119.16038
  vertex -35.15639 -30.51278 108.67052
  vertex -49.870148 -46.230038 119.07699
 endloop
endfacet
facet normal -0.5327235 0.15351011 -0.8322502
 outer loop
  vertex -58.512764 7.9110312 119.16038
  vertex -46.47761 49.676373 119.16037
  vertex -36.07193 30.333748 108.93191
 endloop
endfacet
facet normal -0.5461026 0.1726051 -0.8197436
 outer loop
  vertex -58.512764 7.9110312 119.16038
  vertex -36.07193 30.333748 108.93191
  vertex -44.46457 3.780409 108.93191
 endloop
endfacet
facet normal -0.18188925 -0.48488408 0.85545534
 outer loop
  vertex -21.194565 -54.148804 98.24189
  vertex -17.578196 -36.87611 108.801216
  vertex -35.15639 -30.51278 108.67052
 endloop
endfacet
facet normal -0.21881038 -0.49917626 0.83841825
 outer loop
  vertex -21.194565 -54.148804 98.24189
  vertex -35.15639 -30.51278 108.67052
  vertex -42.38913 -44.85833 98.24188
 endloop
endfacet
facet normal -0.15542892 0.33528256 -0.929208
 outer loop
  vertex -46.47761 49.676373 119.16037
  vertex 0 71.22225 119.16036
  vertex 0 42.874935 108.93191
 endloop
endfacet
facet normal -0.14008318 0.40291807 -0.90445215
 outer loop
  vertex -46.47761 49.676373 119.16037
  vertex 0 42.874935 108.93191
  vertex -36.07193 30.333748 108.93191
 endloop
endfacet
facet normal -0.15333259 -0.44172496 -0.8839503
 outer loop
  vertex -49.870148 -46.230038 119.07699
  vertex -35.15639 -30.51278 108.67052
  vertex -17.578196 -36.87611 108.801216
 endloop
endfacet
facet normal -0.21872468 -0.2737993 -0.9365861
 outer loop
  vertex -49.870148 -46.230038 119.07699
  vertex -17.578196 -36.87611 108.801216
  vertex -14.013824 -75.060974 119.13168
 endloop
endfacet
facet normal -0.66803724 -0.18681516 0.720296
 outer loop
  vertex -42.38913 -44.85833 98.24188
  vertex -35.15639 -30.51278 108.67052
  vertex -44.46457 3.780409 108.93191
 endloop
endfacet
facet normal -0.498177 -0.20635158 0.8421631
 outer loop
  vertex -42.38913 -44.85833 98.24188
  vertex -44.46457 3.780409 108.93191
  vertex -60.970074 2.1417056e-05 98.241875
 endloop
endfacet
facet normal -0.5633291 0.17804983 0.8068201
 outer loop
  vertex -60.970074 2.1417056e-05 98.241875
  vertex -44.46457 3.780409 108.93191
  vertex -36.07193 30.333748 108.93191
 endloop
endfacet
facet normal -0.6321163 0.26183134 0.72929645
 outer loop
  vertex -60.970074 2.1417056e-05 98.241875
  vertex -36.07193 30.333748 108.93191
  vertex -42.38913 44.85838 98.24187
 endloop
endfacet
facet normal -0.9206258 -0.38133594 0.083851255
 outer loop
  vertex -37.538223 -35.402485 79.68332
  vertex -36.328964 -36.183334 89.40898
  vertex -51.316612 1.975019e-05 89.40897
 endloop
endfacet
facet normal -0.92387617 -0.3772429 0.06434719
 outer loop
  vertex -37.538223 -35.402485 79.68332
  vertex -51.316612 1.975019e-05 89.40897
  vertex -51.993996 1.8015922e-05 79.68331
 endloop
endfacet
facet normal -0.38123626 0.9240893 -0.026791444
 outer loop
  vertex -37.538223 35.402527 79.683304
  vertex -36.328964 36.18338 89.40897
  vertex 0 51.17102 89.40896
 endloop
endfacet
facet normal -0.3618504 0.9262843 -0.10517405
 outer loop
  vertex -37.538223 35.402527 79.683304
  vertex 0 51.17102 89.40896
  vertex 0 50.06673 79.683304
 endloop
endfacet
facet normal -0.38054818 -0.9224215 -0.0657387
 outer loop
  vertex -18.769112 -42.73459 79.68332
  vertex -18.164482 -43.677155 89.40898
  vertex -36.328964 -36.183334 89.40898
 endloop
endfacet
facet normal -0.3637099 -0.9310441 -0.02952866
 outer loop
  vertex -18.769112 -42.73459 79.68332
  vertex -36.328964 -36.183334 89.40898
  vertex -37.538223 -35.402485 79.68332
 endloop
endfacet
facet normal -0.9238762 0.3772429 0.06434706
 outer loop
  vertex -37.538223 35.402527 79.683304
  vertex -51.993996 1.8015922e-05 79.68331
  vertex -51.316612 1.975019e-05 89.40897
 endloop
endfacet
facet normal -0.9206258 0.38133594 0.08385108
 outer loop
  vertex -37.538223 35.402527 79.683304
  vertex -51.316612 1.975019e-05 89.40897
  vertex -36.328964 36.18338 89.40897
 endloop
endfacet
facet normal -0.5417847 0.2244145 -0.81000465
 outer loop
  vertex -54.527493 51.80913 1.2434801
  vertex -52.892258 50.269062 -0.27695477
  vertex -73.97052 -0.618347 -0.27694294
 endloop
endfacet
facet normal -0.5417843 0.22441433 -0.81000495
 outer loop
  vertex -54.527493 51.80913 1.2434801
  vertex -73.97052 -0.618347 -0.27694294
  vertex -76.243675 -0.61834687 1.243492
 endloop
endfacet
facet normal -0.21497078 -0.55989766 -0.8001889
 outer loop
  vertex -28.26708 -63.903923 1.2435077
  vertex -27.449461 -62.044884 -0.27692834
  vertex 0 -72.584015 -0.2769255
 endloop
endfacet
facet normal -0.2147473 -0.5590563 -0.8008368
 outer loop
  vertex -28.26708 -63.903923 1.2435077
  vertex 0 -72.584015 -0.2769255
  vertex 0 -74.76201 1.2435106
 endloop
endfacet
facet normal -0.22240013 0.5580746 -0.79943174
 outer loop
  vertex 0 73.525314 1.2434744
  vertex 0 71.34732 -0.2769594
  vertex -52.892258 50.269062 -0.27695477
 endloop
endfacet
facet normal -0.22139977 0.5559159 -0.8012114
 outer loop
  vertex 0 73.525314 1.2434744
  vertex -52.892258 50.269062 -0.27695477
  vertex -54.527493 51.80913 1.2434801
 endloop
endfacet
facet normal -0.5417843 -0.2244147 -0.8100049
 outer loop
  vertex -76.243675 -0.61834687 1.243492
  vertex -73.97052 -0.618347 -0.27694294
  vertex -52.892258 -51.50575 -0.27693012
 endloop
endfacet
facet normal -0.5417841 -0.2244146 -0.810005
 outer loop
  vertex -76.243675 -0.61834687 1.243492
  vertex -52.892258 -51.50575 -0.27693012
  vertex -54.527493 -53.045826 1.243505
 endloop
endfacet
facet normal -0.18407245 0.5294434 0.82813466
 outer loop
  vertex -42.38913 44.85838 98.24187
  vertex -36.07193 30.333748 108.93191
  vertex 0 42.874935 108.93191
 endloop
endfacet
facet normal -0.19816938 0.45208907 0.8696806
 outer loop
  vertex -42.38913 44.85838 98.24187
  vertex 0 42.874935 108.93191
  vertex 0 63.43932 98.24185
 endloop
endfacet
facet normal 0 -0.7514959 0.65973777
 outer loop
  vertex -16.913397 -47.74494 167.89688
  vertex 0 -47.74494 167.89688
  vertex 0 -10.35478 210.48737
 endloop
endfacet
facet normal -0.10364444 -0.72668093 0.6791117
 outer loop
  vertex -16.913397 -47.74494 167.89688
  vertex 0 -10.35478 210.48737
  vertex -22.188396 -4.6753726 213.17825
 endloop
endfacet
facet normal -0.80677676 -0.4951079 0.32245854
 outer loop
  vertex -15.488932 -64.778114 145.30783
  vertex -16.913397 -47.74494 167.89688
  vertex -28.375711 -29.493134 167.2428
 endloop
endfacet
facet normal -0.62302524 -0.5642822 0.5416874
 outer loop
  vertex -15.488932 -64.778114 145.30783
  vertex -28.375711 -29.493134 167.2428
  vertex -37.33843 -41.421886 144.50795
 endloop
endfacet
facet normal -0.4241368 0.9054952 -0.013652988
 outer loop
  vertex 0 74.088844 122.718765
  vertex -47.848366 51.67652 122.71877
  vertex -34.477074 58.270348 144.6496
 endloop
endfacet
facet normal -0.45468768 0.88751715 -0.07464895
 outer loop
  vertex 0 74.088844 122.718765
  vertex -34.477074 58.270348 144.6496
  vertex 0 75.92492 144.54825
 endloop
endfacet
facet normal -0.80204517 -0.14565438 0.5792308
 outer loop
  vertex -52.12549 -46.77011 122.687836
  vertex -37.33843 -41.421886 144.50795
  vertex -46.59193 8.809711 144.3262
 endloop
endfacet
facet normal -0.84416753 -0.119416885 0.52260965
 outer loop
  vertex -52.12549 -46.77011 122.687836
  vertex -46.59193 8.809711 144.3262
  vertex -59.97011 8.8196125 122.71879
 endloop
endfacet
facet normal -0.82661456 0.23380172 0.51190364
 outer loop
  vertex -47.848366 51.67652 122.71877
  vertex -59.97011 8.8196125 122.71879
  vertex -46.59193 8.809711 144.3262
 endloop
endfacet
facet normal -0.8616915 0.20803602 0.4628269
 outer loop
  vertex -47.848366 51.67652 122.71877
  vertex -46.59193 8.809711 144.3262
  vertex -34.477074 58.270348 144.6496
 endloop
endfacet
facet normal 0 -0.8379244 0.54578626
 outer loop
  vertex 0 -79.491585 122.71881
  vertex 0 -64.778114 145.30783
  vertex -15.488932 -64.778114 145.30783
 endloop
endfacet
facet normal 0 -0.8379244 0.5457862
 outer loop
  vertex 0 -79.491585 122.71881
  vertex -15.488932 -64.778114 145.30783
  vertex -14.064466 -79.491585 122.71881
 endloop
endfacet
facet normal -0.39424095 -0.16330022 -0.90438217
 outer loop
  vertex -36.328964 -36.183334 89.40898
  vertex -42.153294 -43.369457 93.24551
  vertex -60.11753 2.0039839e-05 93.2455
 endloop
endfacet
facet normal -0.39424115 -0.16330035 -0.90438205
 outer loop
  vertex -36.328964 -36.183334 89.40898
  vertex -60.11753 2.0039839e-05 93.2455
  vertex -51.316612 1.975019e-05 89.40897
 endloop
endfacet
facet normal -0.1552793 0.36436433 -0.91821945
 outer loop
  vertex -36.328964 36.18338 89.40897
  vertex -42.153294 43.369503 93.24549
  vertex 0 61.33374 93.24548
 endloop
endfacet
facet normal -0.14418396 0.34949064 -0.9257793
 outer loop
  vertex -36.328964 36.18338 89.40897
  vertex 0 61.33374 93.24548
  vertex 0 51.17102 89.40896
 endloop
endfacet
facet normal -0.15199588 -0.3566608 -0.9217865
 outer loop
  vertex -18.164482 -43.677155 89.40898
  vertex -21.076647 -52.351578 93.245514
  vertex -42.153294 -43.369457 93.24551
 endloop
endfacet
facet normal -0.15148227 -0.36718214 -0.91773117
 outer loop
  vertex -18.164482 -43.677155 89.40898
  vertex -42.153294 -43.369457 93.24551
  vertex -36.328964 -36.183334 89.40898
 endloop
endfacet
facet normal -0.39424118 0.16330013 -0.90438205
 outer loop
  vertex -36.328964 36.18338 89.40897
  vertex -51.316612 1.975019e-05 89.40897
  vertex -60.11753 2.0039839e-05 93.2455
 endloop
endfacet
facet normal -0.39424053 0.1632997 -0.9043824
 outer loop
  vertex -36.328964 36.18338 89.40897
  vertex -60.11753 2.0039839e-05 93.2455
  vertex -42.153294 43.369503 93.24549
 endloop
endfacet
facet normal -0.75511456 -0.31277904 -0.5761696
 outer loop
  vertex -72.89233 5.9927293e-06 26.394499
  vertex -51.542084 -51.543995 26.39451
  vertex -54.448082 -54.44999 31.78059
 endloop
endfacet
facet normal -0.7551143 -0.31277904 -0.57616985
 outer loop
  vertex -72.89233 5.9927293e-06 26.394499
  vertex -54.448082 -54.44999 31.78059
  vertex -77.00203 7.399367e-06 31.780577
 endloop
endfacet
facet normal -0.7551144 0.31277874 -0.57616997
 outer loop
  vertex -72.89233 5.9927293e-06 26.394499
  vertex -77.00203 7.399367e-06 31.780577
  vertex -54.448082 54.45001 31.780563
 endloop
endfacet
facet normal -0.7551145 0.31277877 -0.5761697
 outer loop
  vertex -72.89233 5.9927293e-06 26.394499
  vertex -54.448082 54.45001 31.780563
  vertex -51.542084 51.544014 26.394485
 endloop
endfacet
facet normal -0.3127894 -0.7551117 -0.57616764
 outer loop
  vertex -25.771042 -62.219116 26.394512
  vertex 0 -72.89424 26.394516
  vertex 0 -77.003944 31.780596
 endloop
endfacet
facet normal -0.31278837 -0.75511056 -0.5761696
 outer loop
  vertex -25.771042 -62.219116 26.394512
  vertex 0 -77.003944 31.780596
  vertex -27.224041 -65.72697 31.780594
 endloop
endfacet
facet normal -0.31278786 0.75510937 -0.5761715
 outer loop
  vertex -51.542084 51.544014 26.394485
  vertex -54.448082 54.45001 31.780563
  vertex 0 77.00395 31.780558
 endloop
endfacet
facet normal -0.3127893 0.7551116 -0.57616794
 outer loop
  vertex -51.542084 51.544014 26.394485
  vertex 0 77.00395 31.780558
  vertex 0 72.89425 26.394482
 endloop
endfacet
facet normal -0.11188671 0.28334197 0.95246977
 outer loop
  vertex -17.17983 16.313234 330.83932
  vertex -31.148836 13.549827 330.02045
  vertex -25.38684 -6.5759687 336.68436
 endloop
endfacet
facet normal -0.067214064 0.26941958 0.96067446
 outer loop
  vertex -17.17983 16.313234 330.83932
  vertex -25.38684 -6.5759687 336.68436
  vertex -18.84248 -5.930597 336.96124
 endloop
endfacet
facet normal -0.3164267 -0.82376033 -0.4704181
 outer loop
  vertex -28.26708 -63.903923 1.2435077
  vertex 0 -74.76201 1.2435106
  vertex 0 -78.62902 8.015127
 endloop
endfacet
facet normal -0.3355114 -0.8400849 -0.42625037
 outer loop
  vertex -28.26708 -63.903923 1.2435077
  vertex 0 -78.62902 8.015127
  vertex -28.62621 -67.19634 8.015123
 endloop
endfacet
facet normal -0.33864555 0.8503102 -0.40285432
 outer loop
  vertex 0 73.525314 1.2434744
  vertex -54.527493 51.80913 1.2434801
  vertex -55.47498 54.639996 8.015096
 endloop
endfacet
facet normal -0.33483106 0.81235325 -0.4774625
 outer loop
  vertex 0 73.525314 1.2434744
  vertex -55.47498 54.639996 8.015096
  vertex 0 77.50535 8.01509
 endloop
endfacet
facet normal -0.88749903 0.3676142 -0.27785805
 outer loop
  vertex -54.527493 51.80913 1.2434801
  vertex -76.243675 -0.61834687 1.243492
  vertex -78.340324 -0.5618364 8.015108
 endloop
endfacet
facet normal -0.88749874 0.3676139 -0.27785972
 outer loop
  vertex -54.527493 51.80913 1.2434801
  vertex -78.340324 -0.5618364 8.015108
  vertex -55.47498 54.639996 8.015096
 endloop
endfacet
facet normal -0.8889987 -0.3682356 -0.27218327
 outer loop
  vertex -76.243675 -0.61834687 1.243492
  vertex -54.527493 -53.045826 1.243505
  vertex -55.47498 -55.763668 8.015121
 endloop
endfacet
facet normal -0.88899934 -0.36823562 -0.27218157
 outer loop
  vertex -76.243675 -0.61834687 1.243492
  vertex -55.47498 -55.763668 8.015121
  vertex -78.340324 -0.5618364 8.015108
 endloop
endfacet
facet normal -0.34586814 -0.83648556 -0.42504963
 outer loop
  vertex -54.527493 -53.045826 1.243505
  vertex -28.26708 -63.903923 1.2435077
  vertex -28.62621 -67.19634 8.015123
 endloop
endfacet
facet normal -0.36068287 -0.8470366 -0.39043164
 outer loop
  vertex -54.527493 -53.045826 1.243505
  vertex -28.62621 -67.19634 8.015123
  vertex -55.47498 -55.763668 8.015121
 endloop
endfacet
facet normal -0.31278884 -0.75511044 -0.5761696
 outer loop
  vertex -51.542084 -51.543995 26.39451
  vertex -25.771042 -62.219116 26.394512
  vertex -27.224041 -65.72697 31.780594
 endloop
endfacet
facet normal -0.3127879 -0.7551095 -0.57617134
 outer loop
  vertex -51.542084 -51.543995 26.39451
  vertex -27.224041 -65.72697 31.780594
  vertex -54.448082 -54.44999 31.78059
 endloop
endfacet
facet normal -0.14883667 -0.34924784 -0.92513436
 outer loop
  vertex 0 -51.170975 89.40899
  vertex 0 -61.333694 93.24552
  vertex -21.076647 -52.351578 93.245514
 endloop
endfacet
facet normal -0.14775066 -0.35813797 -0.92190397
 outer loop
  vertex 0 -51.170975 89.40899
  vertex -21.076647 -52.351578 93.245514
  vertex -18.164482 -43.677155 89.40898
 endloop
endfacet
facet normal -0.22807424 -0.5506 -0.8030079
 outer loop
  vertex -54.527493 -53.045826 1.243505
  vertex -52.892258 -51.50575 -0.27693012
  vertex -27.449461 -62.044884 -0.27692834
 endloop
endfacet
facet normal -0.22903448 -0.5539223 -0.8004457
 outer loop
  vertex -54.527493 -53.045826 1.243505
  vertex -27.449461 -62.044884 -0.27692834
  vertex -28.26708 -63.903923 1.2435077
 endloop
endfacet
facet normal -0.37928954 -0.9193707 -0.10438853
 outer loop
  vertex 0 -50.06669 79.68332
  vertex 0 -51.170975 89.40899
  vertex -18.164482 -43.677155 89.40898
 endloop
endfacet
facet normal -0.36303863 -0.92932624 -0.06749642
 outer loop
  vertex 0 -50.06669 79.68332
  vertex -18.164482 -43.677155 89.40898
  vertex -18.769112 -42.73459 79.68332
 endloop
endfacet
facet normal 0 -0.7611502 -0.64857566
 outer loop
  vertex 0 -76.459465 119.1604
  vertex 0 -79.491585 122.71881
  vertex -14.064466 -79.491585 122.71881
 endloop
endfacet
facet normal -0.06104513 -0.6276501 -0.7760985
 outer loop
  vertex 0 -76.459465 119.1604
  vertex -14.064466 -79.491585 122.71881
  vertex -14.013824 -75.060974 119.13168
 endloop
endfacet
facet normal -0.17323874 -0.4606785 0.8704962
 outer loop
  vertex 0 -63.439274 98.24189
  vertex 0 -43.239445 108.931915
  vertex -17.578196 -36.87611 108.801216
 endloop
endfacet
facet normal -0.20941013 -0.47773218 0.8531819
 outer loop
  vertex 0 -63.439274 98.24189
  vertex -17.578196 -36.87611 108.801216
  vertex -21.194565 -54.148804 98.24189
 endloop
endfacet
facet normal -0.33697504 -0.8626071 0.37730217
 outer loop
  vertex 0 -56.309326 65.41109
  vertex 0 -50.06669 79.68332
  vertex -18.769112 -42.73459 79.68332
 endloop
endfacet
facet normal -0.31018764 -0.85841525 0.40854257
 outer loop
  vertex 0 -56.309326 65.41109
  vertex -18.769112 -42.73459 79.68332
  vertex -22.820913 -48.063015 65.41107
 endloop
endfacet
facet normal -0.37453642 -0.85443866 -0.36007923
 outer loop
  vertex 0 -61.333694 93.24552
  vertex 0 -63.439274 98.24189
  vertex -21.194565 -54.148804 98.24189
 endloop
endfacet
facet normal -0.37116167 -0.87093574 -0.3220404
 outer loop
  vertex 0 -61.333694 93.24552
  vertex -21.194565 -54.148804 98.24189
  vertex -21.076647 -52.351578 93.245514
 endloop
endfacet
facet normal -0.18425062 -0.5098952 0.8402729
 outer loop
  vertex 0 -79.610085 51.271698
  vertex 0 -56.309326 65.41109
  vertex -22.820913 -48.063015 65.41107
 endloop
endfacet
facet normal -0.21791658 -0.5260781 0.8220427
 outer loop
  vertex 0 -79.610085 51.271698
  vertex -22.820913 -48.063015 65.41107
  vertex -28.145456 -67.95145 51.27169
 endloop
endfacet
facet normal -0.18248692 -0.4405469 0.87898624
 outer loop
  vertex -55.843777 -56.041977 23.247066
  vertex -27.779993 -67.66678 23.24707
  vertex -25.771042 -62.219116 26.394512
 endloop
endfacet
facet normal -0.18248661 -0.4405447 0.87898743
 outer loop
  vertex -55.843777 -56.041977 23.247066
  vertex -25.771042 -62.219116 26.394512
  vertex -51.542084 -51.543995 26.39451
 endloop
endfacet
facet normal -0.3917689 -0.92003965 -0.006650406
 outer loop
  vertex -55.47498 -55.763668 8.015121
  vertex -28.62621 -67.19634 8.015123
  vertex -27.779993 -67.66678 23.24707
 endloop
endfacet
facet normal -0.38256398 -0.9235592 -0.026137387
 outer loop
  vertex -55.47498 -55.763668 8.015121
  vertex -27.779993 -67.66678 23.24707
  vertex -55.843777 -56.041977 23.247066
 endloop
endfacet
facet normal -0.3798083 -0.916905 -0.12260071
 outer loop
  vertex -56.290913 -56.29282 51.27169
  vertex -54.448082 -54.44999 31.78059
  vertex -27.224041 -65.72697 31.780594
 endloop
endfacet
facet normal -0.37980756 -0.91690534 -0.12259945
 outer loop
  vertex -56.290913 -56.29282 51.27169
  vertex -27.224041 -65.72697 31.780594
  vertex -28.145456 -67.95145 51.27169
 endloop
endfacet
facet normal -0.6857085 -0.6289243 0.36641216
 outer loop
  vertex -14.064466 -79.491585 122.71881
  vertex -15.488932 -64.778114 145.30783
  vertex -37.33843 -41.421886 144.50795
 endloop
endfacet
facet normal -0.5523773 -0.6420118 0.5316956
 outer loop
  vertex -14.064466 -79.491585 122.71881
  vertex -37.33843 -41.421886 144.50795
  vertex -52.12549 -46.77011 122.687836
 endloop
endfacet
facet normal -0.027397357 -0.29415777 -0.9553641
 outer loop
  vertex 0 -43.239445 108.931915
  vertex 0 -76.459465 119.1604
  vertex -14.013824 -75.060974 119.13168
 endloop
endfacet
facet normal -0.08984799 -0.2679002 -0.95924807
 outer loop
  vertex 0 -43.239445 108.931915
  vertex -14.013824 -75.060974 119.13168
  vertex -17.578196 -36.87611 108.801216
 endloop
endfacet
facet normal -0.5583169 -0.6952237 -0.45270994
 outer loop
  vertex -52.12549 -46.77011 122.687836
  vertex -49.870148 -46.230038 119.07699
  vertex -14.013824 -75.060974 119.13168
 endloop
endfacet
facet normal -0.4731967 -0.55106443 -0.687323
 outer loop
  vertex -52.12549 -46.77011 122.687836
  vertex -14.013824 -75.060974 119.13168
  vertex -14.064466 -79.491585 122.71881
 endloop
endfacet
facet normal -0.34268 0.7315919 -0.5893587
 outer loop
  vertex -47.848366 51.67652 122.71877
  vertex 0 74.088844 122.718765
  vertex 0 71.22225 119.16036
 endloop
endfacet
facet normal -0.34908715 0.75303185 -0.5577465
 outer loop
  vertex -47.848366 51.67652 122.71877
  vertex 0 71.22225 119.16036
  vertex -46.47761 49.676373 119.16037
 endloop
endfacet
facet normal -0.8524457 0.24110751 -0.46390036
 outer loop
  vertex -59.97011 8.8196125 122.71879
  vertex -47.848366 51.67652 122.71877
  vertex -46.47761 49.676373 119.16037
 endloop
endfacet
facet normal -0.8715612 0.25115007 -0.42107543
 outer loop
  vertex -59.97011 8.8196125 122.71879
  vertex -46.47761 49.676373 119.16037
  vertex -58.512764 7.9110312 119.16038
 endloop
endfacet
facet normal -0.9279109 -0.14759646 -0.34233978
 outer loop
  vertex -59.97011 8.8196125 122.71879
  vertex -58.512764 7.9110312 119.16038
  vertex -49.870148 -46.230038 119.07699
 endloop
endfacet
facet normal -0.834295 -0.117432795 -0.5386663
 outer loop
  vertex -59.97011 8.8196125 122.71879
  vertex -49.870148 -46.230038 119.07699
  vertex -52.12549 -46.77011 122.687836
 endloop
endfacet
endsolid 
