solid 
facet normal 0.8860971 -0.33595538 0.31932133
 outer loop
  vertex 70.1192 -0.5744417 6.6418376
  vertex 32.21511 -72.441216 36.212906
  vertex 53.292374 -52.461838 -1.2550598
 endloop
endfacet
facet normal 0.8913058 0.33524963 0.30525658
 outer loop
  vertex 53.481644 50.79808 -1.1989963
  vertex 30.782505 77.76779 35.459637
  vertex 70.1192 -0.5744417 6.6418376
 endloop
endfacet
facet normal 0.34518674 -0.8948537 -0.2829892
 outer loop
  vertex 53.292374 -52.461838 -1.2550598
  vertex 32.21511 -72.441216 36.212906
  vertex -0.30803317 -73.25276 -0.89219576
 endloop
endfacet
facet normal 0.8979228 -0.38830647 0.20725042
 outer loop
  vertex 32.21511 -72.441216 36.212906
  vertex 70.1192 -0.5744417 6.6418376
  vertex 52.448463 1.1543437 86.44027
 endloop
endfacet
facet normal 0.9035598 0.38314217 0.19178568
 outer loop
  vertex 30.782505 77.76779 35.459637
  vertex 52.448463 1.1543437 86.44027
  vertex 70.1192 -0.5744417 6.6418376
 endloop
endfacet
facet normal 0.30001673 0.94926786 -0.09423681
 outer loop
  vertex -26.503918 73.27569 131.3644
  vertex 11.999756 75.05792 271.89932
  vertex 34.675518 51.067055 102.425735
 endloop
endfacet
facet normal 0.9838667 0.13960388 0.11188002
 outer loop
  vertex 34.675518 51.067055 102.425735
  vertex 11.999756 75.05792 271.89932
  vertex 27.819902 8.775748 215.48473
 endloop
endfacet
facet normal 0.9399566 0.2970239 0.16810259
 outer loop
  vertex 34.675518 51.067055 102.425735
  vertex 27.819902 8.775748 215.48473
  vertex 57.369633 -27.16133 113.75345
 endloop
endfacet
facet normal 0.9751258 0.22124003 0.013513549
 outer loop
  vertex 11.999756 75.05792 271.89932
  vertex 27.57464 2.914916 329.13452
  vertex 27.819902 8.775748 215.48473
 endloop
endfacet
facet normal 0.032110192 -0.62594914 0.7792025
 outer loop
  vertex 5.8125744 -95.95573 250.60652
  vertex 27.57464 2.914916 329.13452
  vertex -28.087753 2.639378 331.20697
 endloop
endfacet
facet normal 0.029657312 -0.012267202 -0.99948484
 outer loop
  vertex 27.819902 8.775748 215.48473
  vertex -6.181302e-07 -63.965813 215.55203
  vertex -25.193926 -7.6235843 214.11295
 endloop
endfacet
facet normal 0.97800446 -0.20840538 -0.008636719
 outer loop
  vertex 27.819902 8.775748 215.48473
  vertex 27.57464 2.914916 329.13452
  vertex 5.8125744 -95.95573 250.60652
 endloop
endfacet
facet normal 0.8415169 -0.3222381 -0.43360347
 outer loop
  vertex 27.819902 8.775748 215.48473
  vertex 5.8125744 -95.95573 250.60652
  vertex -6.181302e-07 -63.965813 215.55203
 endloop
endfacet
facet normal 0.6780907 -0.6086611 0.4119765
 outer loop
  vertex -6.9399604e-08 -84.67384 123.21075
  vertex 57.369633 -27.16133 113.75345
  vertex 27.819902 8.775748 215.48473
 endloop
endfacet
facet normal 0.8324018 -0.44978622 0.3237277
 outer loop
  vertex 32.21511 -72.441216 36.212906
  vertex 52.448463 1.1543437 86.44027
  vertex 22.162203 -50.588062 92.424675
 endloop
endfacet
facet normal 0.94663256 0.31453675 0.07038055
 outer loop
  vertex 30.782505 77.76779 35.459637
  vertex 34.675518 51.067055 102.425735
  vertex 52.448463 1.1543437 86.44027
 endloop
endfacet
facet normal 0.4160785 -0.13961852 0.8985462
 outer loop
  vertex 22.162203 -50.588062 92.424675
  vertex 52.448463 1.1543437 86.44027
  vertex 34.675518 51.067055 102.425735
 endloop
endfacet
facet normal 0.5070927 0.022345368 -0.8616018
 outer loop
  vertex 22.162203 -50.588062 92.424675
  vertex 34.675518 51.067055 102.425735
  vertex 57.369633 -27.16133 113.75345
 endloop
endfacet
facet normal 0.2048661 -0.71791834 0.66529936
 outer loop
  vertex -6.9399604e-08 -84.67384 123.21075
  vertex 27.819902 8.775748 215.48473
  vertex -25.193926 -7.6235843 214.11295
 endloop
endfacet
facet normal 0.32532808 0.8465367 -0.42135182
 outer loop
  vertex -1.6170529e-06 71.63743 -0.62420136
  vertex 30.782505 77.76779 35.459637
  vertex 53.481644 50.79808 -1.1989963
 endloop
endfacet
facet normal -0.9521184 -0.28510845 -0.11037995
 outer loop
  vertex -70.1192 -0.5744462 6.6418357
  vertex -53.57483 -52.588512 -1.7161454
  vertex -57.079525 -55.416656 35.81978
 endloop
endfacet
facet normal -0.94828314 0.28613788 -0.13741998
 outer loop
  vertex -53.481647 50.798077 -1.198995
  vertex -70.1192 -0.5744462 6.6418357
  vertex -57.433186 55.271652 35.384018
 endloop
endfacet
facet normal -0.2444255 0.9589657 -0.14366949
 outer loop
  vertex 30.782505 77.76779 35.459637
  vertex -53.481647 50.798077 -1.198995
  vertex -57.433186 55.271652 35.384018
 endloop
endfacet
facet normal -0.34662038 -0.8806106 0.32307795
 outer loop
  vertex -53.57483 -52.588512 -1.7161454
  vertex -0.30803317 -73.25276 -0.89219576
  vertex 32.21511 -72.441216 36.212906
 endloop
endfacet
facet normal -0.18611704 -0.9782962 -0.09108731
 outer loop
  vertex -53.57483 -52.588512 -1.7161454
  vertex 32.21511 -72.441216 36.212906
  vertex -57.079525 -55.416656 35.81978
 endloop
endfacet
facet normal -0.96417403 -0.09812692 0.24645399
 outer loop
  vertex -57.079525 -55.416656 35.81978
  vertex -51.54183 22.388922 88.462975
  vertex -70.1192 -0.5744462 6.6418357
 endloop
endfacet
facet normal -0.9744849 0.12563895 0.18599445
 outer loop
  vertex -57.433186 55.271652 35.384018
  vertex -70.1192 -0.5744462 6.6418357
  vertex -51.54183 22.388922 88.462975
 endloop
endfacet
facet normal -0.95074093 0.21399912 0.22426781
 outer loop
  vertex -55.759518 -29.729237 105.629395
  vertex -25.193926 -7.6235843 214.11295
  vertex -26.503918 73.27569 131.3644
 endloop
endfacet
facet normal -0.77554154 0.5971158 0.20490992
 outer loop
  vertex 11.999756 75.05792 271.89932
  vertex -26.503918 73.27569 131.3644
  vertex -28.087753 2.639378 331.20697
 endloop
endfacet
facet normal -0.9990486 -0.038023245 -0.021357562
 outer loop
  vertex -26.503918 73.27569 131.3644
  vertex -25.193926 -7.6235843 214.11295
  vertex -28.087753 2.639378 331.20697
 endloop
endfacet
facet normal -0.9442529 -0.32917473 0.00551525
 outer loop
  vertex -25.193926 -7.6235843 214.11295
  vertex 5.8125744 -95.95573 250.60652
  vertex -28.087753 2.639378 331.20697
 endloop
endfacet
facet normal 0.02596365 0.62474144 0.7803999
 outer loop
  vertex 11.999756 75.05792 271.89932
  vertex -28.087753 2.639378 331.20697
  vertex 27.57464 2.914916 329.13452
 endloop
endfacet
facet normal -0.8883444 -0.40285888 -0.22033848
 outer loop
  vertex -6.181302e-07 -63.965813 215.55203
  vertex 5.8125744 -95.95573 250.60652
  vertex -25.193926 -7.6235843 214.11295
 endloop
endfacet
facet normal -0.7135755 -0.6194364 0.32727453
 outer loop
  vertex -6.9399604e-08 -84.67384 123.21075
  vertex -25.193926 -7.6235843 214.11295
  vertex -55.759518 -29.729237 105.629395
 endloop
endfacet
facet normal -0.9969459 0.077495135 -0.009664488
 outer loop
  vertex -57.079525 -55.416656 35.81978
  vertex -55.759518 -29.729237 105.629395
  vertex -51.54183 22.388922 88.462975
 endloop
endfacet
facet normal -0.34414408 0.78058654 0.52177536
 outer loop
  vertex -57.433186 55.271652 35.384018
  vertex -51.54183 22.388922 88.462975
  vertex 34.675518 51.067055 102.425735
 endloop
endfacet
facet normal -0.22967435 0.89938784 0.37195602
 outer loop
  vertex -57.433186 55.271652 35.384018
  vertex 34.675518 51.067055 102.425735
  vertex 30.782505 77.76779 35.459637
 endloop
endfacet
facet normal -0.311064 0.3125856 -0.89751285
 outer loop
  vertex -26.503918 73.27569 131.3644
  vertex 34.675518 51.067055 102.425735
  vertex -55.759518 -29.729237 105.629395
 endloop
endfacet
facet normal -0.25452453 0.32105884 0.91221625
 outer loop
  vertex -51.54183 22.388922 88.462975
  vertex -55.759518 -29.729237 105.629395
  vertex 34.675518 51.067055 102.425735
 endloop
endfacet
facet normal -0.36031187 0.9205319 0.15098469
 outer loop
  vertex -1.6170529e-06 71.63743 -0.62420136
  vertex -53.481647 50.798077 -1.198995
  vertex 30.782505 77.76779 35.459637
 endloop
endfacet
facet normal -0.040694885 -0.6385339 0.768517
 outer loop
  vertex 22.162203 -50.588062 92.424675
  vertex 57.369633 -27.16133 113.75345
  vertex -55.759518 -29.729237 105.629395
 endloop
endfacet
facet normal -0.19265912 -0.9257289 0.32543558
 outer loop
  vertex 32.21511 -72.441216 36.212906
  vertex 22.162203 -50.588062 92.424675
  vertex -55.759518 -29.729237 105.629395
 endloop
endfacet
facet normal -0.17739066 -0.92250663 0.3428034
 outer loop
  vertex 32.21511 -72.441216 36.212906
  vertex -55.759518 -29.729237 105.629395
  vertex -57.079525 -55.416656 35.81978
 endloop
endfacet
facet normal 0.07492306 -0.23412997 -0.96931404
 outer loop
  vertex 57.369633 -27.16133 113.75345
  vertex -6.9399604e-08 -84.67384 123.21075
  vertex -55.759518 -29.729237 105.629395
 endloop
endfacet
endsolid 
